<?xml version="1.0" encoding="UTF-8" standalone="no"?>
<!DOCTYPE svg PUBLIC "-//W3C//DTD SVG 1.1//EN"
 "http://www.w3.org/Graphics/SVG/1.1/DTD/svg11.dtd">
<!-- Generated by graphviz version 2.43.0 (0)
 -->
<!-- Title: TradeBookERD Pages: 1 -->
<svg width="1103pt" height="705pt"
 viewBox="0.00 0.00 1103.00 705.00" xmlns="http://www.w3.org/2000/svg" xmlns:xlink="http://www.w3.org/1999/xlink" xmlns:c2pa="http://c2pa.org/manifest"><metadata><c2pa:manifest>AAAWgmp1bWIAAAAeanVtZGMycGEAEQAQgAAAqgA4m3EDYzJwYQAAABZcanVtYgAAAEdqdW1kYzJtYQARABCAAACqADibcQN1cm46YzJwYToxOTJhYjUwNC1lYjljLTRlNGItYjIyNy1lMzVhNmQyZGY4MjIAAAADl2p1bWIAAAApanVtZGMyYXMAEQAQgAAAqgA4m3EDYzJwYS5hc3NlcnRpb25zAAAAALxqdW1iAAAARGp1bWRjYm9yABEAEIAAAKoAOJtxE2MycGEuaW5ncmVkaWVudC52MwAAAAAYYzJzaCFe2wiu8GtM9UxKKOkcfEMAAABwY2JvcqNpZGM6Zm9ybWF0bWltYWdlL3N2Zyt4bWxqaW5zdGFuY2VJRHgseG1wOmlpZDoxZjQzOTk5My1mN2I0LTQ4YjQtOTI1Yy0yY2E3MWZiZjFmM2VscmVsYXRpb25zaGlwaHBhcmVudE9mAAAB4mp1bWIAAABBanVtZGNib3IAEQAQgAAAqgA4m3ETYzJwYS5hY3Rpb25zLnYyAAAAABhjMnNoRjwOJuPMgrsIEBIO+295xwAAAZljYm9yomdhY3Rpb25zgqJmYWN0aW9ua2MycGEub3BlbmVkanBhcmFtZXRlcnOha2luZ3JlZGllbnRzgaJjdXJseC1zZWxmI2p1bWJmPWMycGEuYXNzZXJ0aW9ucy9jMnBhLmluZ3JlZGllbnQudjNkaGFzaFggYpLY2WFbcTaoxRi/wO8sCesOWHZGOoAG5T6kPeYxQzukZmFjdGlvbngdY29tLmFudGhyb3BpYy5jbGF1ZGUucHJvdmlkZWRqcGFyYW1ldGVyc6F4H2NvbS5hbnRocm9waWMub3JpZ2luLWNvbmZpZGVuY2VndW5rbm93bmtkZXNjcmlwdGlvbnhmQ2xhdWRlIHByb3ZpZGVkIHRoaXMgZmlsZSBhdCB0aGUgcmVxdWVzdCBvZiBhIHVzZXIgYW5kIG1heSBoYXZlIGNyZWF0ZWQgb3IgbW9kaWZpZWQgdGhlIGZpbGUgY29udGVudHMubXNvZnR3YXJlQWdlbnShZG5hbWVmQ2xhdWRlcmFsbEFjdGlvbnNJbmNsdWRlZPUAAADIanVtYgAAAEBqdW1kY2JvcgARABCAAACqADibcRNjMnBhLmhhc2guZGF0YQAAAAAYYzJzaPtApuDr4ROQ1rBVCjuoHZYAAACAY2JvcqVjYWxnZnNoYTI1NmNwYWRMAAAAAAAAAAAAAAAAZGhhc2hYIE5XtMAB8mgdqYj5aDC9QUoa3W+oXY+OuPwZr97MhXD6ZG5hbWVuanVtYmYgbWFuaWZlc3RqZXhjbHVzaW9uc4GiZXN0YXJ0GQHIZmxlbmd0aBkeBAAAAj5qdW1iAAAAJ2p1bWRjMmNsABEAEIAAAKoAOJtxA2MycGEuY2xhaW0udjIAAAACD2Nib3KlY2FsZ2ZzaGEyNTZpc2lnbmF0dXJleE1zZWxmI2p1bWJmPS9jMnBhL3VybjpjMnBhOjE5MmFiNTA0LWViOWMtNGU0Yi1iMjI3LWUzNWE2ZDJkZjgyMi9jMnBhLnNpZ25hdHVyZWppbnN0YW5jZUlEeCx4bXA6aWlkOmUyN2YxZWUxLTM0NmItNDc1MS05NDM3LTZjNDk0MDdiOWE0ZnJjcmVhdGVkX2Fzc2VydGlvbnODomN1cmx4LXNlbGYjanVtYmY9YzJwYS5hc3NlcnRpb25zL2MycGEuaW5ncmVkaWVudC52M2RoYXNoWCBiktjZYVtxNqjFGL/A7ywJ6w5YdkY6gAblPqQ95jFDO6JjdXJseCpzZWxmI2p1bWJmPWMycGEuYXNzZXJ0aW9ucy9jMnBhLmFjdGlvbnMudjJkaGFzaFgg/pM1u2cPljTro+R4Lzn/oDCFz2DWkgWD+gRt2go3/96iY3VybHgpc2VsZiNqdW1iZj1jMnBhLmFzc2VydGlvbnMvYzJwYS5oYXNoLmRhdGFkaGFzaFggylZAsuWUhrMvPVZ44w8PVqewwiH/6qS8J0b+igDRurF0Y2xhaW1fZ2VuZXJhdG9yX2luZm+jZG5hbWVvQW50aHJvcGljIEZpbGVzZ3ZlcnNpb25lMS4wLjBrc3BlY1ZlcnNpb25lMi40LjAAABA4anVtYgAAAChqdW1kYzJjcwARABCAAACqADibcQNjMnBhLnNpZ25hdHVyZQAAABAIY2JvctKEWQISogEmGCFZAgowggIGMIIBjaADAgECAhRA5aAK7sI50L64g/oGQgU9Z1UTADAKBggqhkjOPQQDAzBJMRcwFQYDVQQKEw5BbnRocm9waWMsIFBCQzEuMCwGA1UEAxMlQW50aHJvcGljIENvbnRlbnQgQ3JlZGVudGlhbHMgUm9vdCBDQTAeFw0yNjA4MDcxODQzNTZaFw0yODA4MDYxOTQzNTZaMEQxFzAVBgNVBAoTDkFudGhyb3BpYywgUEJDMSkwJwYDVQQDEyBBbnRocm9waWMgQ2xhdWRlIENvbnRlbnQgU2lnbmluZzBZMBMGByqGSM49AgEGCCqGSM49AwEHA0IABJh6CmvLUBgFFNU0vUKlOVtE6djd17L5SuwX0LemFisBM3dkd/3cyjxFA3Qo5S46fX0/ihY0VZ7mfb9KF703t5OjWDBWMA4GA1UdDwEB/wQEAwIHgDAVBgNVHSUEDjAMBgorBgEEAYPoXgIBMAwGA1UdEwEB/wQCMAAwHwYDVR0jBBgwFoAUzlHiBIFOZFsj+OPEz5o+nMHXXMIwCgYIKoZIzj0EAwMDZwAwZAIwMXMdFJ4BetLLVY7ORuE9noqbbAZOZn/aArXyTwFAZfKrPzxF2vPoJNf1+UCdg1XGAjBwX1zd9WGqYkqmL5SFqw1QySjr1zJfpJM9+1rdDwSPLMOPOjKuiXjoU/pUUeG9RwmhY3BhZFkNngAAAAAAAAAAAAAAAAAAAAAAAAAAAAAAAAAAAAAAAAAAAAAAAAAAAAAAAAAAAAAAAAAAAAAAAAAAAAAAAAAAAAAAAAAAAAAAAAAAAAAAAAAAAAAAAAAAAAAAAAAAAAAAAAAAAAAAAAAAAAAAAAAAAAAAAAAAAAAAAAAAAAAAAAAAAAAAAAAAAAAAAAAAAAAAAAAAAAAAAAAAAAAAAAAAAAAAAAAAAAAAAAAAAAAAAAAAAAAAAAAAAAAAAAAAAAAAAAAAAAAAAAAAAAAAAAAAAAAAAAAAAAAAAAAAAAAAAAAAAAAAAAAAAAAAAAAAAAAAAAAAAAAAAAAAAAAAAAAAAAAAAAAAAAAAAAAAAAAAAAAAAAAAAAAAAAAAAAAAAAAAAAAAAAAAAAAAAAAAAAAAAAAAAAAAAAAAAAAAAAAAAAAAAAAAAAAAAAAAAAAAAAAAAAAAAAAAAAAAAAAAAAAAAAAAAAAAAAAAAAAAAAAAAAAAAAAAAAAAAAAAAAAAAAAAAAAAAAAAAAAAAAAAAAAAAAAAAAAAAAAAAAAAAAAAAAAAAAAAAAAAAAAAAAAAAAAAAAAAAAAAAAAAAAAAAAAAAAAAAAAAAAAAAAAAAAAAAAAAAAAAAAAAAAAAAAAAAAAAAAAAAAAAAAAAAAAAAAAAAAAAAAAAAAAAAAAAAAAAAAAAAAAAAAAAAAAAAAAAAAAAAAAAAAAAAAAAAAAAAAAAAAAAAAAAAAAAAAAAAAAAAAAAAAAAAAAAAAAAAAAAAAAAAAAAAAAAAAAAAAAAAAAAAAAAAAAAAAAAAAAAAAAAAAAAAAAAAAAAAAAAAAAAAAAAAAAAAAAAAAAAAAAAAAAAAAAAAAAAAAAAAAAAAAAAAAAAAAAAAAAAAAAAAAAAAAAAAAAAAAAAAAAAAAAAAAAAAAAAAAAAAAAAAAAAAAAAAAAAAAAAAAAAAAAAAAAAAAAAAAAAAAAAAAAAAAAAAAAAAAAAAAAAAAAAAAAAAAAAAAAAAAAAAAAAAAAAAAAAAAAAAAAAAAAAAAAAAAAAAAAAAAAAAAAAAAAAAAAAAAAAAAAAAAAAAAAAAAAAAAAAAAAAAAAAAAAAAAAAAAAAAAAAAAAAAAAAAAAAAAAAAAAAAAAAAAAAAAAAAAAAAAAAAAAAAAAAAAAAAAAAAAAAAAAAAAAAAAAAAAAAAAAAAAAAAAAAAAAAAAAAAAAAAAAAAAAAAAAAAAAAAAAAAAAAAAAAAAAAAAAAAAAAAAAAAAAAAAAAAAAAAAAAAAAAAAAAAAAAAAAAAAAAAAAAAAAAAAAAAAAAAAAAAAAAAAAAAAAAAAAAAAAAAAAAAAAAAAAAAAAAAAAAAAAAAAAAAAAAAAAAAAAAAAAAAAAAAAAAAAAAAAAAAAAAAAAAAAAAAAAAAAAAAAAAAAAAAAAAAAAAAAAAAAAAAAAAAAAAAAAAAAAAAAAAAAAAAAAAAAAAAAAAAAAAAAAAAAAAAAAAAAAAAAAAAAAAAAAAAAAAAAAAAAAAAAAAAAAAAAAAAAAAAAAAAAAAAAAAAAAAAAAAAAAAAAAAAAAAAAAAAAAAAAAAAAAAAAAAAAAAAAAAAAAAAAAAAAAAAAAAAAAAAAAAAAAAAAAAAAAAAAAAAAAAAAAAAAAAAAAAAAAAAAAAAAAAAAAAAAAAAAAAAAAAAAAAAAAAAAAAAAAAAAAAAAAAAAAAAAAAAAAAAAAAAAAAAAAAAAAAAAAAAAAAAAAAAAAAAAAAAAAAAAAAAAAAAAAAAAAAAAAAAAAAAAAAAAAAAAAAAAAAAAAAAAAAAAAAAAAAAAAAAAAAAAAAAAAAAAAAAAAAAAAAAAAAAAAAAAAAAAAAAAAAAAAAAAAAAAAAAAAAAAAAAAAAAAAAAAAAAAAAAAAAAAAAAAAAAAAAAAAAAAAAAAAAAAAAAAAAAAAAAAAAAAAAAAAAAAAAAAAAAAAAAAAAAAAAAAAAAAAAAAAAAAAAAAAAAAAAAAAAAAAAAAAAAAAAAAAAAAAAAAAAAAAAAAAAAAAAAAAAAAAAAAAAAAAAAAAAAAAAAAAAAAAAAAAAAAAAAAAAAAAAAAAAAAAAAAAAAAAAAAAAAAAAAAAAAAAAAAAAAAAAAAAAAAAAAAAAAAAAAAAAAAAAAAAAAAAAAAAAAAAAAAAAAAAAAAAAAAAAAAAAAAAAAAAAAAAAAAAAAAAAAAAAAAAAAAAAAAAAAAAAAAAAAAAAAAAAAAAAAAAAAAAAAAAAAAAAAAAAAAAAAAAAAAAAAAAAAAAAAAAAAAAAAAAAAAAAAAAAAAAAAAAAAAAAAAAAAAAAAAAAAAAAAAAAAAAAAAAAAAAAAAAAAAAAAAAAAAAAAAAAAAAAAAAAAAAAAAAAAAAAAAAAAAAAAAAAAAAAAAAAAAAAAAAAAAAAAAAAAAAAAAAAAAAAAAAAAAAAAAAAAAAAAAAAAAAAAAAAAAAAAAAAAAAAAAAAAAAAAAAAAAAAAAAAAAAAAAAAAAAAAAAAAAAAAAAAAAAAAAAAAAAAAAAAAAAAAAAAAAAAAAAAAAAAAAAAAAAAAAAAAAAAAAAAAAAAAAAAAAAAAAAAAAAAAAAAAAAAAAAAAAAAAAAAAAAAAAAAAAAAAAAAAAAAAAAAAAAAAAAAAAAAAAAAAAAAAAAAAAAAAAAAAAAAAAAAAAAAAAAAAAAAAAAAAAAAAAAAAAAAAAAAAAAAAAAAAAAAAAAAAAAAAAAAAAAAAAAAAAAAAAAAAAAAAAAAAAAAAAAAAAAAAAAAAAAAAAAAAAAAAAAAAAAAAAAAAAAAAAAAAAAAAAAAAAAAAAAAAAAAAAAAAAAAAAAAAAAAAAAAAAAAAAAAAAAAAAAAAAAAAAAAAAAAAAAAAAAAAAAAAAAAAAAAAAAAAAAAAAAAAAAAAAAAAAAAAAAAAAAAAAAAAAAAAAAAAAAAAAAAAAAAAAAAAAAAAAAAAAAAAAAAAAAAAAAAAAAAAAAAAAAAAAAAAAAAAAAAAAAAAAAAAAAAAAAAAAAAAAAAAAAAAAAAAAAAAAAAAAAAAAAAAAAAAAAAAAAAAAAAAAAAAAAAAAAAAAAAAAAAAAAAAAAAAAAAAAAAAAAAAAAAAAAAAAAAAAAAAAAAAAAAAAAAAAAAAAAAAAAAAAAAAAAAAAAAAAAAAAAAAAAAAAAAAAAAAAAAAAAAAAAAAAAAAAAAAAAAAAAAAAAAAAAAAAAAAAAAAAAAAAAAAAAAAAAAAAAAAAAAAAAAAAAAAAAAAAAAAAAAAAAAAAAAAAAAAAAAAAAAAAAAAAAAAAAAAAAAAAAAAAAAAAAAAAAAAAAAAAAAAAAAAAAAAAAAAAAAAAAAAAAAAAAAAAAAAAAAAAAAAAAAAAAAAAAAAAAAAAAAAAAAAAAAAAAAAAAAAAAAAAAAAAAAAAAAAAAAAAAAAAAAAAAAAAAAAAAAAAAAAAAAAAAAAAAAAAAAAAAAAAAAAAAAAAAAAAAAAAAAAAAAAAAAAAAAAAAAAAAAAAAAAAAAAAAAAAAAAAAAAAAAAAAAAAAAAAAAAAAAAAAAAAAAAAAAAAAAAAAAAAAAAAAAAAAAAAAAAAAAAAAAAAAAAAAAAAAAAAAAAAAAAAAAAAAAAAAAAAAAAAAAAAAAAAAAAAAAAAAAAAAAAAAAAAAAAAAAAAAAAAAAAAAAAAAAAAAAAAAAAAAAAAAAAAAAAAAAAAAAAAAAAAAAAAAAAAAAAAAAAAAAAAAAAAAAAAAAAAAAAAAAAAAAAAAAAAAAAAAAAAAAAAAAAAAAAAAAAAAAAAAAAAAAAAAAAAAAAAAAAAAAAAAAAAAAAAAAAAAAAAAAAAAAAAAAAAAAAAAAAAAAAAAAAAAAAAAAAAAAAAAAAAAAAAAAAAAAAAAAAAAAAAAAAAAAAAAAAAAAAAAAAAAAAAAAAAAAAAAAAAAAAAAAAAAAAAAAAAAAAAAAAAAAAAAAAAAAAAAAAAAAAAAAAAAAAAAAAAAAAAAAAAAAAAAAAAAAAAAAAAAAAAAAAAAAAAAAAAAAAAAAAAAAAAAAAAAAAAAAAAAAAAAAAAAAAAAAAAAAAAAAAAAAAAAAAAAAAAAAAAAAAAAAAAAAAAAAAAAAAAAAAAAAAAAAAAAAAAAAAAAAAAAAAAAAAAAAAAAAAAAAAAAAAAAAAAAAAAAAAAAAAAAAAAAAAAAAAAAAAAAAAAAAAAAAAAAAAAAAAAAAAAAAAAAAAAAAAAAAAAAAAAAAAAAAAAAAAAAAAAAAAAAAAAAAAAAAAAAAAAAAAAAAAAAAAAAAAAAAAAAAAAAAAAAAAAAAAAAAAAAAAAAAAAAAAAAAAAAAAAAAAAAAAAAAAAAAAAAAAAAAAAAAAAAAAAAAAAAAAAAAAAAAAAAAAAAAAAAAAAAAAAAAAAAAAAAAAAAAAAAAAAAAAAAAAAAAAAAAAAAAAAAAAAAAAAAAAAAAAAAAAAAAAAAAAAAAAAAAAAAAAAAAAAAAAAAAAAAAAAAAAAAAAAAAAAAAAAAAAAAAAAAAAAAAAAAAAAAAAAAAAAAAAAAAAAAAAAAAAAAAAAAAAAAAAAAAAAAAAAAAAAAAAAAAAAAAAAAAAAAAAAAAAAAAAAAAAAAAAAAAAAAAAAAAAAAAAAAAAAAAAAAAAAAAAAAAAAAAAAAAAAAAAAAAAAAAAPZYQKNUFV51l0qu0EQs1pYYMpDeBlygcpKfZFeUg3xuEWpGYF3fIJN1OUdPQZ/cY1mGp3XmOmZaJR/JMM5/GEyk0b8=</c2pa:manifest></metadata>
<g id="graph0" class="graph" transform="scale(1 1) rotate(0) translate(4 701)">
<title>TradeBookERD</title>
<polygon fill="white" stroke="transparent" points="-4,4 -4,-701 1099,-701 1099,4 -4,4"/>
<text text-anchor="start" x="313" y="-678" font-family="Helvetica,sans-Serif" font-weight="bold" font-size="20.00">TradeBook — Entity Relationship Diagram</text>
<text text-anchor="start" x="403" y="-664.4" font-family="Helvetica,sans-Serif" font-size="12.00">Equities, single currency, weighted&#45;average cost</text>
<text text-anchor="start" x="544" y="-646" font-family="Helvetica,sans-Serif" font-size="20.00"> </text>
<!-- accounts -->
<g id="node1" class="node">
<title>accounts</title>
<polygon fill="#1f4e79" stroke="transparent" points="13,-609 13,-633 228,-633 228,-609 13,-609"/>
<polygon fill="none" stroke="black" points="13,-609 13,-633 228,-633 228,-609 13,-609"/>
<text text-anchor="start" x="92.5" y="-619.2" font-family="Helvetica,sans-Serif" font-weight="bold" font-size="11.00" fill="white">accounts</text>
<polygon fill="none" stroke="black" points="13,-585 13,-609 43,-609 43,-585 13,-585"/>
<text text-anchor="start" x="19" y="-595.2" font-family="Helvetica,sans-Serif" font-weight="bold" font-size="11.00">PK</text>
<polygon fill="none" stroke="black" points="43,-585 43,-609 137,-609 137,-585 43,-585"/>
<text text-anchor="start" x="49" y="-594.2" font-family="Helvetica,sans-Serif" font-size="11.00">id</text>
<polygon fill="none" stroke="black" points="137,-585 137,-609 228,-609 228,-585 137,-585"/>
<text text-anchor="start" x="143" y="-594.2" font-family="Helvetica,sans-Serif" font-size="11.00">int identity</text>
<polygon fill="none" stroke="black" points="13,-561 13,-585 43,-585 43,-561 13,-561"/>
<text text-anchor="start" x="19" y="-570.2" font-family="Helvetica,sans-Serif" font-size="11.00">UQ</text>
<polygon fill="none" stroke="black" points="43,-561 43,-585 137,-585 137,-561 43,-561"/>
<text text-anchor="start" x="49" y="-570.2" font-family="Helvetica,sans-Serif" font-size="11.00">code</text>
<polygon fill="none" stroke="black" points="137,-561 137,-585 228,-585 228,-561 137,-561"/>
<text text-anchor="start" x="143" y="-570.2" font-family="Helvetica,sans-Serif" font-size="11.00">nvarchar(16)</text>
<polygon fill="none" stroke="black" points="13,-537 13,-561 43,-561 43,-537 13,-537"/>
<polygon fill="none" stroke="black" points="43,-537 43,-561 137,-561 137,-537 43,-537"/>
<text text-anchor="start" x="49" y="-546.2" font-family="Helvetica,sans-Serif" font-size="11.00">name</text>
<polygon fill="none" stroke="black" points="137,-537 137,-561 228,-561 228,-537 137,-537"/>
<text text-anchor="start" x="143" y="-546.2" font-family="Helvetica,sans-Serif" font-size="11.00">nvarchar(128)</text>
<polygon fill="none" stroke="black" points="13,-513 13,-537 43,-537 43,-513 13,-513"/>
<polygon fill="none" stroke="black" points="43,-513 43,-537 137,-537 137,-513 43,-513"/>
<text text-anchor="start" x="49" y="-522.2" font-family="Helvetica,sans-Serif" font-size="11.00">base_currency</text>
<polygon fill="none" stroke="black" points="137,-513 137,-537 228,-537 228,-513 137,-513"/>
<text text-anchor="start" x="143" y="-522.2" font-family="Helvetica,sans-Serif" font-size="11.00">char(3)</text>
<polygon fill="none" stroke="black" points="13,-489 13,-513 43,-513 43,-489 13,-489"/>
<text text-anchor="start" x="19" y="-498.2" font-family="Helvetica,sans-Serif" font-size="11.00">IX</text>
<polygon fill="none" stroke="black" points="43,-489 43,-513 137,-513 137,-489 43,-489"/>
<text text-anchor="start" x="49" y="-498.2" font-family="Helvetica,sans-Serif" font-size="11.00">owner_subject</text>
<polygon fill="none" stroke="black" points="137,-489 137,-513 228,-513 228,-489 137,-489"/>
<text text-anchor="start" x="143" y="-498.2" font-family="Helvetica,sans-Serif" font-size="11.00">nvarchar(64)</text>
<polygon fill="none" stroke="black" points="13,-465 13,-489 43,-489 43,-465 13,-465"/>
<polygon fill="none" stroke="black" points="43,-465 43,-489 137,-489 137,-465 43,-465"/>
<text text-anchor="start" x="49" y="-474.2" font-family="Helvetica,sans-Serif" font-size="11.00">is_active</text>
<polygon fill="none" stroke="black" points="137,-465 137,-489 228,-489 228,-465 137,-465"/>
<text text-anchor="start" x="143" y="-474.2" font-family="Helvetica,sans-Serif" font-size="11.00">bit</text>
<polygon fill="none" stroke="black" points="13,-441 13,-465 43,-465 43,-441 13,-441"/>
<polygon fill="none" stroke="black" points="43,-441 43,-465 137,-465 137,-441 43,-441"/>
<text text-anchor="start" x="49" y="-450.2" font-family="Helvetica,sans-Serif" font-size="11.00">created_at_utc</text>
<polygon fill="none" stroke="black" points="137,-441 137,-465 228,-465 228,-441 137,-441"/>
<text text-anchor="start" x="143" y="-450.2" font-family="Helvetica,sans-Serif" font-size="11.00">datetime2(3)</text>
</g>
<!-- trades -->
<g id="node3" class="node">
<title>trades</title>
<polygon fill="#2e75b6" stroke="transparent" points="365.5,-500 365.5,-524 656.5,-524 656.5,-500 365.5,-500"/>
<polygon fill="none" stroke="black" points="365.5,-500 365.5,-524 656.5,-524 656.5,-500 365.5,-500"/>
<text text-anchor="start" x="448.5" y="-510.2" font-family="Helvetica,sans-Serif" font-weight="bold" font-size="11.00" fill="white">trades</text>
<text text-anchor="start" x="488.5" y="-510.2" font-family="Helvetica,sans-Serif" font-size="11.00" fill="white">  (append&#45;only)</text>
<polygon fill="none" stroke="black" points="365.5,-476 365.5,-500 395.5,-500 395.5,-476 365.5,-476"/>
<text text-anchor="start" x="371.5" y="-486.2" font-family="Helvetica,sans-Serif" font-weight="bold" font-size="11.00">PK</text>
<polygon fill="none" stroke="black" points="395.5,-476 395.5,-500 520.5,-500 520.5,-476 395.5,-476"/>
<text text-anchor="start" x="401.5" y="-485.2" font-family="Helvetica,sans-Serif" font-size="11.00">id</text>
<polygon fill="none" stroke="black" points="520.5,-476 520.5,-500 656.5,-500 656.5,-476 520.5,-476"/>
<text text-anchor="start" x="526.5" y="-485.2" font-family="Helvetica,sans-Serif" font-size="11.00">bigint identity</text>
<polygon fill="none" stroke="black" points="365.5,-452 365.5,-476 395.5,-476 395.5,-452 365.5,-452"/>
<text text-anchor="start" x="371.5" y="-462.2" font-family="Helvetica,sans-Serif" font-weight="bold" font-size="11.00">FK</text>
<polygon fill="none" stroke="black" points="395.5,-452 395.5,-476 520.5,-476 520.5,-452 395.5,-452"/>
<text text-anchor="start" x="401.5" y="-461.2" font-family="Helvetica,sans-Serif" font-size="11.00">account_id</text>
<polygon fill="none" stroke="black" points="520.5,-452 520.5,-476 656.5,-476 656.5,-452 520.5,-452"/>
<text text-anchor="start" x="526.5" y="-461.2" font-family="Helvetica,sans-Serif" font-size="11.00">int</text>
<polygon fill="none" stroke="black" points="365.5,-428 365.5,-452 395.5,-452 395.5,-428 365.5,-428"/>
<text text-anchor="start" x="371.5" y="-438.2" font-family="Helvetica,sans-Serif" font-weight="bold" font-size="11.00">FK</text>
<polygon fill="none" stroke="black" points="395.5,-428 395.5,-452 520.5,-452 520.5,-428 395.5,-428"/>
<text text-anchor="start" x="401.5" y="-437.2" font-family="Helvetica,sans-Serif" font-size="11.00">instrument_id</text>
<polygon fill="none" stroke="black" points="520.5,-428 520.5,-452 656.5,-452 656.5,-428 520.5,-428"/>
<text text-anchor="start" x="526.5" y="-437.2" font-family="Helvetica,sans-Serif" font-size="11.00">int</text>
<polygon fill="none" stroke="black" points="365.5,-404 365.5,-428 395.5,-428 395.5,-404 365.5,-404"/>
<polygon fill="none" stroke="black" points="395.5,-404 395.5,-428 520.5,-428 520.5,-404 395.5,-404"/>
<text text-anchor="start" x="401.5" y="-413.2" font-family="Helvetica,sans-Serif" font-size="11.00">side</text>
<polygon fill="none" stroke="black" points="520.5,-404 520.5,-428 656.5,-428 656.5,-404 520.5,-404"/>
<text text-anchor="start" x="526.5" y="-413.2" font-family="Helvetica,sans-Serif" font-size="11.00">tinyint (1=Buy 2=Sell)</text>
<polygon fill="none" stroke="black" points="365.5,-380 365.5,-404 395.5,-404 395.5,-380 365.5,-380"/>
<polygon fill="none" stroke="black" points="395.5,-380 395.5,-404 520.5,-404 520.5,-380 395.5,-380"/>
<text text-anchor="start" x="401.5" y="-389.2" font-family="Helvetica,sans-Serif" font-size="11.00">quantity</text>
<polygon fill="none" stroke="black" points="520.5,-380 520.5,-404 656.5,-404 656.5,-380 520.5,-380"/>
<text text-anchor="start" x="526.5" y="-389.2" font-family="Helvetica,sans-Serif" font-size="11.00">decimal(18,4)</text>
<polygon fill="none" stroke="black" points="365.5,-356 365.5,-380 395.5,-380 395.5,-356 365.5,-356"/>
<polygon fill="none" stroke="black" points="395.5,-356 395.5,-380 520.5,-380 520.5,-356 395.5,-356"/>
<text text-anchor="start" x="401.5" y="-365.2" font-family="Helvetica,sans-Serif" font-size="11.00">price</text>
<polygon fill="none" stroke="black" points="520.5,-356 520.5,-380 656.5,-380 656.5,-356 520.5,-356"/>
<text text-anchor="start" x="526.5" y="-365.2" font-family="Helvetica,sans-Serif" font-size="11.00">decimal(18,6)</text>
<polygon fill="none" stroke="black" points="365.5,-332 365.5,-356 395.5,-356 395.5,-332 365.5,-332"/>
<text text-anchor="start" x="371.5" y="-341.2" font-family="Helvetica,sans-Serif" font-size="11.00">IX</text>
<polygon fill="none" stroke="black" points="395.5,-332 395.5,-356 520.5,-356 520.5,-332 395.5,-332"/>
<text text-anchor="start" x="401.5" y="-341.2" font-family="Helvetica,sans-Serif" font-size="11.00">executed_at_utc</text>
<polygon fill="none" stroke="black" points="520.5,-332 520.5,-356 656.5,-356 656.5,-332 520.5,-332"/>
<text text-anchor="start" x="526.5" y="-341.2" font-family="Helvetica,sans-Serif" font-size="11.00">datetime2(3)</text>
<polygon fill="none" stroke="black" points="365.5,-308 365.5,-332 395.5,-332 395.5,-308 365.5,-308"/>
<text text-anchor="start" x="371.5" y="-317.2" font-family="Helvetica,sans-Serif" font-size="11.00">UQ</text>
<polygon fill="none" stroke="black" points="395.5,-308 395.5,-332 520.5,-332 520.5,-308 395.5,-308"/>
<text text-anchor="start" x="401.5" y="-317.2" font-family="Helvetica,sans-Serif" font-size="11.00">external_ref</text>
<polygon fill="none" stroke="black" points="520.5,-308 520.5,-332 656.5,-332 656.5,-308 520.5,-308"/>
<text text-anchor="start" x="526.5" y="-317.2" font-family="Helvetica,sans-Serif" font-size="11.00">nvarchar(64) null</text>
<polygon fill="none" stroke="black" points="365.5,-284 365.5,-308 395.5,-308 395.5,-284 365.5,-284"/>
<polygon fill="none" stroke="black" points="395.5,-284 395.5,-308 520.5,-308 520.5,-284 395.5,-284"/>
<text text-anchor="start" x="401.5" y="-293.2" font-family="Helvetica,sans-Serif" font-size="11.00">captured_by_subject</text>
<polygon fill="none" stroke="black" points="520.5,-284 520.5,-308 656.5,-308 656.5,-284 520.5,-284"/>
<text text-anchor="start" x="526.5" y="-293.2" font-family="Helvetica,sans-Serif" font-size="11.00">nvarchar(64)</text>
<polygon fill="none" stroke="black" points="365.5,-260 365.5,-284 395.5,-284 395.5,-260 365.5,-260"/>
<polygon fill="none" stroke="black" points="395.5,-260 395.5,-284 520.5,-284 520.5,-260 395.5,-260"/>
<text text-anchor="start" x="401.5" y="-269.2" font-family="Helvetica,sans-Serif" font-size="11.00">captured_at_utc</text>
<polygon fill="none" stroke="black" points="520.5,-260 520.5,-284 656.5,-284 656.5,-260 520.5,-260"/>
<text text-anchor="start" x="526.5" y="-269.2" font-family="Helvetica,sans-Serif" font-size="11.00">datetime2(3)</text>
</g>
<!-- accounts&#45;&gt;trades -->
<g id="edge1" class="edge">
<title>accounts&#45;&gt;trades</title>
<path fill="none" stroke="#44546a" d="M235.72,-494.18C271.28,-480.91 311.14,-466.03 349.21,-451.83"/>
<polygon fill="#44546a" stroke="#44546a" points="350.28,-454.42 356.79,-448.99 348.32,-449.17 350.28,-454.42"/>
<text text-anchor="middle" x="334.81" y="-447.44" font-family="Helvetica,sans-Serif" font-size="10.00">0..*</text>
<text text-anchor="middle" x="257.7" y="-490.73" font-family="Helvetica,sans-Serif" font-size="10.00">1</text>
</g>
<!-- positions -->
<g id="node4" class="node">
<title>positions</title>
<polygon fill="#2e75b6" stroke="transparent" points="852.5,-488 852.5,-512 1087.5,-512 1087.5,-488 852.5,-488"/>
<polygon fill="none" stroke="black" points="852.5,-488 852.5,-512 1087.5,-512 1087.5,-488 852.5,-488"/>
<text text-anchor="start" x="912.5" y="-498.2" font-family="Helvetica,sans-Serif" font-weight="bold" font-size="11.00" fill="white">positions</text>
<text text-anchor="start" x="969.5" y="-498.2" font-family="Helvetica,sans-Serif" font-size="11.00" fill="white">  (derived)</text>
<polygon fill="none" stroke="black" points="852.5,-464 852.5,-488 902.5,-488 902.5,-464 852.5,-464"/>
<text text-anchor="start" x="858.5" y="-474.2" font-family="Helvetica,sans-Serif" font-weight="bold" font-size="11.00">PK</text>
<polygon fill="none" stroke="black" points="902.5,-464 902.5,-488 999.5,-488 999.5,-464 902.5,-464"/>
<text text-anchor="start" x="908.5" y="-473.2" font-family="Helvetica,sans-Serif" font-size="11.00">id</text>
<polygon fill="none" stroke="black" points="999.5,-464 999.5,-488 1087.5,-488 1087.5,-464 999.5,-464"/>
<text text-anchor="start" x="1005.5" y="-473.2" font-family="Helvetica,sans-Serif" font-size="11.00">int identity</text>
<polygon fill="none" stroke="black" points="852.5,-440 852.5,-464 902.5,-464 902.5,-440 852.5,-440"/>
<text text-anchor="start" x="858.5" y="-450.2" font-family="Helvetica,sans-Serif" font-weight="bold" font-size="11.00">FK</text>
<text text-anchor="start" x="874.5" y="-450.2" font-family="Helvetica,sans-Serif" font-size="11.00"> UQ</text>
<polygon fill="none" stroke="black" points="902.5,-440 902.5,-464 999.5,-464 999.5,-440 902.5,-440"/>
<text text-anchor="start" x="908.5" y="-449.2" font-family="Helvetica,sans-Serif" font-size="11.00">account_id</text>
<polygon fill="none" stroke="black" points="999.5,-440 999.5,-464 1087.5,-464 1087.5,-440 999.5,-440"/>
<text text-anchor="start" x="1005.5" y="-449.2" font-family="Helvetica,sans-Serif" font-size="11.00">int</text>
<polygon fill="none" stroke="black" points="852.5,-416 852.5,-440 902.5,-440 902.5,-416 852.5,-416"/>
<text text-anchor="start" x="858.5" y="-426.2" font-family="Helvetica,sans-Serif" font-weight="bold" font-size="11.00">FK</text>
<text text-anchor="start" x="874.5" y="-426.2" font-family="Helvetica,sans-Serif" font-size="11.00"> UQ</text>
<polygon fill="none" stroke="black" points="902.5,-416 902.5,-440 999.5,-440 999.5,-416 902.5,-416"/>
<text text-anchor="start" x="908.5" y="-425.2" font-family="Helvetica,sans-Serif" font-size="11.00">instrument_id</text>
<polygon fill="none" stroke="black" points="999.5,-416 999.5,-440 1087.5,-440 1087.5,-416 999.5,-416"/>
<text text-anchor="start" x="1005.5" y="-425.2" font-family="Helvetica,sans-Serif" font-size="11.00">int</text>
<polygon fill="none" stroke="black" points="852.5,-392 852.5,-416 902.5,-416 902.5,-392 852.5,-392"/>
<polygon fill="none" stroke="black" points="902.5,-392 902.5,-416 999.5,-416 999.5,-392 902.5,-392"/>
<text text-anchor="start" x="908.5" y="-401.2" font-family="Helvetica,sans-Serif" font-size="11.00">net_quantity</text>
<polygon fill="none" stroke="black" points="999.5,-392 999.5,-416 1087.5,-416 1087.5,-392 999.5,-392"/>
<text text-anchor="start" x="1005.5" y="-401.2" font-family="Helvetica,sans-Serif" font-size="11.00">decimal(18,4)</text>
<polygon fill="none" stroke="black" points="852.5,-368 852.5,-392 902.5,-392 902.5,-368 852.5,-368"/>
<polygon fill="none" stroke="black" points="902.5,-368 902.5,-392 999.5,-392 999.5,-368 902.5,-368"/>
<text text-anchor="start" x="908.5" y="-377.2" font-family="Helvetica,sans-Serif" font-size="11.00">average_cost</text>
<polygon fill="none" stroke="black" points="999.5,-368 999.5,-392 1087.5,-392 1087.5,-368 999.5,-368"/>
<text text-anchor="start" x="1005.5" y="-377.2" font-family="Helvetica,sans-Serif" font-size="11.00">decimal(18,6)</text>
<polygon fill="none" stroke="black" points="852.5,-344 852.5,-368 902.5,-368 902.5,-344 852.5,-344"/>
<polygon fill="none" stroke="black" points="902.5,-344 902.5,-368 999.5,-368 999.5,-344 902.5,-344"/>
<text text-anchor="start" x="908.5" y="-353.2" font-family="Helvetica,sans-Serif" font-size="11.00">realised_pnl</text>
<polygon fill="none" stroke="black" points="999.5,-344 999.5,-368 1087.5,-368 1087.5,-344 999.5,-344"/>
<text text-anchor="start" x="1005.5" y="-353.2" font-family="Helvetica,sans-Serif" font-size="11.00">decimal(18,6)</text>
<polygon fill="none" stroke="black" points="852.5,-320 852.5,-344 902.5,-344 902.5,-320 852.5,-320"/>
<text text-anchor="start" x="858.5" y="-330.2" font-family="Helvetica,sans-Serif" font-weight="bold" font-size="11.00">FK</text>
<polygon fill="none" stroke="black" points="902.5,-320 902.5,-344 999.5,-344 999.5,-320 902.5,-320"/>
<text text-anchor="start" x="908.5" y="-329.2" font-family="Helvetica,sans-Serif" font-size="11.00">last_trade_id</text>
<polygon fill="none" stroke="black" points="999.5,-320 999.5,-344 1087.5,-344 1087.5,-320 999.5,-320"/>
<text text-anchor="start" x="1005.5" y="-329.2" font-family="Helvetica,sans-Serif" font-size="11.00">bigint null</text>
<polygon fill="none" stroke="black" points="852.5,-296 852.5,-320 902.5,-320 902.5,-296 852.5,-296"/>
<polygon fill="none" stroke="black" points="902.5,-296 902.5,-320 999.5,-320 999.5,-296 902.5,-296"/>
<text text-anchor="start" x="908.5" y="-305.2" font-family="Helvetica,sans-Serif" font-size="11.00">updated_at_utc</text>
<polygon fill="none" stroke="black" points="999.5,-296 999.5,-320 1087.5,-320 1087.5,-296 999.5,-296"/>
<text text-anchor="start" x="1005.5" y="-305.2" font-family="Helvetica,sans-Serif" font-size="11.00">datetime2(3)</text>
<polygon fill="none" stroke="black" points="852.5,-272 852.5,-296 902.5,-296 902.5,-272 852.5,-272"/>
<text text-anchor="start" x="858.5" y="-281.2" font-family="Helvetica,sans-Serif" font-size="11.00">CC</text>
<polygon fill="none" stroke="black" points="902.5,-272 902.5,-296 999.5,-296 999.5,-272 902.5,-272"/>
<text text-anchor="start" x="908.5" y="-281.2" font-family="Helvetica,sans-Serif" font-size="11.00">row_version</text>
<polygon fill="none" stroke="black" points="999.5,-272 999.5,-296 1087.5,-296 1087.5,-272 999.5,-272"/>
<text text-anchor="start" x="1005.5" y="-281.2" font-family="Helvetica,sans-Serif" font-size="11.00">rowversion</text>
</g>
<!-- accounts&#45;&gt;positions -->
<g id="edge3" class="edge">
<title>accounts&#45;&gt;positions</title>
<path fill="none" stroke="#44546a" d="M235.74,-558.09C346.98,-574.42 519.6,-588.82 664,-553 723.87,-538.15 784.93,-509.13 836.5,-479.76"/>
<polygon fill="#44546a" stroke="#44546a" points="838.17,-482.03 843.71,-475.62 835.38,-477.18 838.17,-482.03"/>
<text text-anchor="middle" x="828.95" y="-489.44" font-family="Helvetica,sans-Serif" font-size="10.00">0..*</text>
<text text-anchor="middle" x="257.39" y="-551.68" font-family="Helvetica,sans-Serif" font-size="10.00">1</text>
</g>
<!-- instruments -->
<g id="node2" class="node">
<title>instruments</title>
<polygon fill="#1f4e79" stroke="transparent" points="8,-264 8,-288 232,-288 232,-264 8,-264"/>
<polygon fill="none" stroke="black" points="8,-264 8,-288 232,-288 232,-264 8,-264"/>
<text text-anchor="start" x="82.5" y="-274.2" font-family="Helvetica,sans-Serif" font-weight="bold" font-size="11.00" fill="white">instruments</text>
<polygon fill="none" stroke="black" points="8,-240 8,-264 38,-264 38,-240 8,-240"/>
<text text-anchor="start" x="14" y="-250.2" font-family="Helvetica,sans-Serif" font-weight="bold" font-size="11.00">PK</text>
<polygon fill="none" stroke="black" points="38,-240 38,-264 141,-264 141,-240 38,-240"/>
<text text-anchor="start" x="44" y="-249.2" font-family="Helvetica,sans-Serif" font-size="11.00">id</text>
<polygon fill="none" stroke="black" points="141,-240 141,-264 232,-264 232,-240 141,-240"/>
<text text-anchor="start" x="147" y="-249.2" font-family="Helvetica,sans-Serif" font-size="11.00">int identity</text>
<polygon fill="none" stroke="black" points="8,-216 8,-240 38,-240 38,-216 8,-216"/>
<text text-anchor="start" x="14" y="-225.2" font-family="Helvetica,sans-Serif" font-size="11.00">UQ</text>
<polygon fill="none" stroke="black" points="38,-216 38,-240 141,-240 141,-216 38,-216"/>
<text text-anchor="start" x="44" y="-225.2" font-family="Helvetica,sans-Serif" font-size="11.00">symbol</text>
<polygon fill="none" stroke="black" points="141,-216 141,-240 232,-240 232,-216 141,-216"/>
<text text-anchor="start" x="147" y="-225.2" font-family="Helvetica,sans-Serif" font-size="11.00">nvarchar(16)</text>
<polygon fill="none" stroke="black" points="8,-192 8,-216 38,-216 38,-192 8,-192"/>
<polygon fill="none" stroke="black" points="38,-192 38,-216 141,-216 141,-192 38,-192"/>
<text text-anchor="start" x="44" y="-201.2" font-family="Helvetica,sans-Serif" font-size="11.00">name</text>
<polygon fill="none" stroke="black" points="141,-192 141,-216 232,-216 232,-192 141,-192"/>
<text text-anchor="start" x="147" y="-201.2" font-family="Helvetica,sans-Serif" font-size="11.00">nvarchar(128)</text>
<polygon fill="none" stroke="black" points="8,-168 8,-192 38,-192 38,-168 8,-168"/>
<polygon fill="none" stroke="black" points="38,-168 38,-192 141,-192 141,-168 38,-168"/>
<text text-anchor="start" x="44" y="-177.2" font-family="Helvetica,sans-Serif" font-size="11.00">instrument_type</text>
<polygon fill="none" stroke="black" points="141,-168 141,-192 232,-192 232,-168 141,-168"/>
<text text-anchor="start" x="147" y="-177.2" font-family="Helvetica,sans-Serif" font-size="11.00">tinyint</text>
<polygon fill="none" stroke="black" points="8,-144 8,-168 38,-168 38,-144 8,-144"/>
<polygon fill="none" stroke="black" points="38,-144 38,-168 141,-168 141,-144 38,-144"/>
<text text-anchor="start" x="44" y="-153.2" font-family="Helvetica,sans-Serif" font-size="11.00">currency</text>
<polygon fill="none" stroke="black" points="141,-144 141,-168 232,-168 232,-144 141,-144"/>
<text text-anchor="start" x="147" y="-153.2" font-family="Helvetica,sans-Serif" font-size="11.00">char(3)</text>
<polygon fill="none" stroke="black" points="8,-120 8,-144 38,-144 38,-120 8,-120"/>
<polygon fill="none" stroke="black" points="38,-120 38,-144 141,-144 141,-120 38,-120"/>
<text text-anchor="start" x="44" y="-129.2" font-family="Helvetica,sans-Serif" font-size="11.00">tick_size</text>
<polygon fill="none" stroke="black" points="141,-120 141,-144 232,-144 232,-120 141,-120"/>
<text text-anchor="start" x="147" y="-129.2" font-family="Helvetica,sans-Serif" font-size="11.00">decimal(18,6)</text>
<polygon fill="none" stroke="black" points="8,-96 8,-120 38,-120 38,-96 8,-96"/>
<polygon fill="none" stroke="black" points="38,-96 38,-120 141,-120 141,-96 38,-96"/>
<text text-anchor="start" x="44" y="-105.2" font-family="Helvetica,sans-Serif" font-size="11.00">lot_size</text>
<polygon fill="none" stroke="black" points="141,-96 141,-120 232,-120 232,-96 141,-96"/>
<text text-anchor="start" x="147" y="-105.2" font-family="Helvetica,sans-Serif" font-size="11.00">int</text>
<polygon fill="none" stroke="black" points="8,-72 8,-96 38,-96 38,-72 8,-72"/>
<polygon fill="none" stroke="black" points="38,-72 38,-96 141,-96 141,-72 38,-72"/>
<text text-anchor="start" x="44" y="-81.2" font-family="Helvetica,sans-Serif" font-size="11.00">is_active</text>
<polygon fill="none" stroke="black" points="141,-72 141,-96 232,-96 232,-72 141,-72"/>
<text text-anchor="start" x="147" y="-81.2" font-family="Helvetica,sans-Serif" font-size="11.00">bit</text>
</g>
<!-- instruments&#45;&gt;trades -->
<g id="edge2" class="edge">
<title>instruments&#45;&gt;trades</title>
<path fill="none" stroke="#44546a" d="M240.2,-245.05C274.71,-263.88 312.94,-284.74 349.51,-304.69"/>
<polygon fill="#44546a" stroke="#44546a" points="348.43,-307.3 356.79,-308.67 351.11,-302.38 348.43,-307.3"/>
<text text-anchor="middle" x="341.68" y="-290.18" font-family="Helvetica,sans-Serif" font-size="10.00">0..*</text>
<text text-anchor="middle" x="255.31" y="-258.54" font-family="Helvetica,sans-Serif" font-size="10.00">1</text>
</g>
<!-- instruments&#45;&gt;positions -->
<g id="edge4" class="edge">
<title>instruments&#45;&gt;positions</title>
<path fill="none" stroke="#44546a" d="M240.04,-177.93C351.78,-179.06 522.46,-188.76 664,-231 723.38,-248.72 784.58,-278.48 836.4,-307.62"/>
<polygon fill="#44546a" stroke="#44546a" points="835.31,-310.22 843.65,-311.72 838.07,-305.35 835.31,-310.22"/>
<text text-anchor="middle" x="822.09" y="-304.83" font-family="Helvetica,sans-Serif" font-size="10.00">0..*</text>
<text text-anchor="middle" x="261.08" y="-169" font-family="Helvetica,sans-Serif" font-size="10.00">1</text>
</g>
<!-- prices -->
<g id="node5" class="node">
<title>prices</title>
<polygon fill="#548235" stroke="transparent" points="398.5,-76 398.5,-100 623.5,-100 623.5,-76 398.5,-76"/>
<polygon fill="none" stroke="black" points="398.5,-76 398.5,-100 623.5,-100 623.5,-76 398.5,-76"/>
<text text-anchor="start" x="455.5" y="-86.2" font-family="Helvetica,sans-Serif" font-weight="bold" font-size="11.00" fill="white">instrument_prices</text>
<polygon fill="none" stroke="black" points="398.5,-52 398.5,-76 447.5,-76 447.5,-52 398.5,-52"/>
<text text-anchor="start" x="404.5" y="-62.2" font-family="Helvetica,sans-Serif" font-weight="bold" font-size="11.00">PK</text>
<text text-anchor="start" x="421.5" y="-62.2" font-family="Helvetica,sans-Serif" font-size="11.00"> </text>
<text text-anchor="start" x="425.5" y="-62.2" font-family="Helvetica,sans-Serif" font-weight="bold" font-size="11.00">FK</text>
<polygon fill="none" stroke="black" points="447.5,-52 447.5,-76 535.5,-76 535.5,-52 447.5,-52"/>
<text text-anchor="start" x="453.5" y="-61.2" font-family="Helvetica,sans-Serif" font-size="11.00">instrument_id</text>
<polygon fill="none" stroke="black" points="535.5,-52 535.5,-76 623.5,-76 623.5,-52 535.5,-52"/>
<text text-anchor="start" x="541.5" y="-61.2" font-family="Helvetica,sans-Serif" font-size="11.00">int</text>
<polygon fill="none" stroke="black" points="398.5,-28 398.5,-52 447.5,-52 447.5,-28 398.5,-28"/>
<polygon fill="none" stroke="black" points="447.5,-28 447.5,-52 535.5,-52 535.5,-28 447.5,-28"/>
<text text-anchor="start" x="453.5" y="-37.2" font-family="Helvetica,sans-Serif" font-size="11.00">last_price</text>
<polygon fill="none" stroke="black" points="535.5,-28 535.5,-52 623.5,-52 623.5,-28 535.5,-28"/>
<text text-anchor="start" x="541.5" y="-37.2" font-family="Helvetica,sans-Serif" font-size="11.00">decimal(18,6)</text>
<polygon fill="none" stroke="black" points="398.5,-4 398.5,-28 447.5,-28 447.5,-4 398.5,-4"/>
<polygon fill="none" stroke="black" points="447.5,-4 447.5,-28 535.5,-28 535.5,-4 447.5,-4"/>
<text text-anchor="start" x="453.5" y="-13.2" font-family="Helvetica,sans-Serif" font-size="11.00">as_of_utc</text>
<polygon fill="none" stroke="black" points="535.5,-4 535.5,-28 623.5,-28 623.5,-4 535.5,-4"/>
<text text-anchor="start" x="541.5" y="-13.2" font-family="Helvetica,sans-Serif" font-size="11.00">datetime2(3)</text>
</g>
<!-- instruments&#45;&gt;prices -->
<g id="edge5" class="edge">
<title>instruments&#45;&gt;prices</title>
<path fill="none" stroke="#44546a" d="M240.2,-140.73C285.11,-125.93 336.35,-109.05 381.99,-94.01"/>
<polygon fill="#44546a" stroke="#44546a" points="383.13,-96.58 389.85,-91.42 381.38,-91.26 383.13,-96.58"/>
<text text-anchor="middle" x="367.85" y="-89.01" font-family="Helvetica,sans-Serif" font-size="10.00">0..1</text>
<text text-anchor="middle" x="262.2" y="-138.14" font-family="Helvetica,sans-Serif" font-size="10.00">1</text>
</g>
<!-- trades&#45;&gt;positions -->
<g id="edge6" class="edge">
<title>trades&#45;&gt;positions</title>
<path fill="none" stroke="#44546a" stroke-dasharray="5,2" d="M664.31,-392C719.84,-392 782.1,-392 835.75,-392"/>
<polygon fill="#44546a" stroke="#44546a" points="835.95,-394.8 843.95,-392 835.95,-389.2 835.95,-394.8"/>
<text text-anchor="middle" x="754" y="-395" font-family="Helvetica,sans-Serif" font-size="10.00">last_trade_id</text>
<text text-anchor="middle" x="821.29" y="-400.07" font-family="Helvetica,sans-Serif" font-size="10.00">0..1</text>
<text text-anchor="middle" x="686.97" y="-378.93" font-family="Helvetica,sans-Serif" font-size="10.00">1</text>
</g>
</g>
</svg>
