<?xml version="1.0" encoding="UTF-8" standalone="no"?>
<!DOCTYPE svg PUBLIC "-//W3C//DTD SVG 1.1//EN"
 "http://www.w3.org/Graphics/SVG/1.1/DTD/svg11.dtd">
<!-- Generated by graphviz version 2.43.0 (0)
 -->
<!-- Title: TradeBookFlow Pages: 1 -->
<svg width="1037pt" height="1524pt"
 viewBox="0.00 0.00 1037.00 1524.00" xmlns="http://www.w3.org/2000/svg" xmlns:xlink="http://www.w3.org/1999/xlink" xmlns:c2pa="http://c2pa.org/manifest"><metadata><c2pa:manifest>AAAWgmp1bWIAAAAeanVtZGMycGEAEQAQgAAAqgA4m3EDYzJwYQAAABZcanVtYgAAAEdqdW1kYzJtYQARABCAAACqADibcQN1cm46YzJwYTo2NDljNTQ5MS01ZTE3LTQ3YWEtODQ0ZC0zMjdiMTZmYzAyODAAAAADl2p1bWIAAAApanVtZGMyYXMAEQAQgAAAqgA4m3EDYzJwYS5hc3NlcnRpb25zAAAAALxqdW1iAAAARGp1bWRjYm9yABEAEIAAAKoAOJtxE2MycGEuaW5ncmVkaWVudC52MwAAAAAYYzJzaEa6Ydt5yIosttGwLTG/EMcAAABwY2JvcqNpZGM6Zm9ybWF0bWltYWdlL3N2Zyt4bWxqaW5zdGFuY2VJRHgseG1wOmlpZDphMWYzMjc1YS0xN2U1LTRkOTEtOTViMi05M2U3ODI5OGI1YWZscmVsYXRpb25zaGlwaHBhcmVudE9mAAAB4mp1bWIAAABBanVtZGNib3IAEQAQgAAAqgA4m3ETYzJwYS5hY3Rpb25zLnYyAAAAABhjMnNokNtbuHm/i5RffKlqErhzBgAAAZljYm9yomdhY3Rpb25zgqJmYWN0aW9ua2MycGEub3BlbmVkanBhcmFtZXRlcnOha2luZ3JlZGllbnRzgaJjdXJseC1zZWxmI2p1bWJmPWMycGEuYXNzZXJ0aW9ucy9jMnBhLmluZ3JlZGllbnQudjNkaGFzaFgg3xfYuHahkQdzxHlB+b03wkNHLBYF9wSZtrSuqbiXV6+kZmFjdGlvbngdY29tLmFudGhyb3BpYy5jbGF1ZGUucHJvdmlkZWRqcGFyYW1ldGVyc6F4H2NvbS5hbnRocm9waWMub3JpZ2luLWNvbmZpZGVuY2VndW5rbm93bmtkZXNjcmlwdGlvbnhmQ2xhdWRlIHByb3ZpZGVkIHRoaXMgZmlsZSBhdCB0aGUgcmVxdWVzdCBvZiBhIHVzZXIgYW5kIG1heSBoYXZlIGNyZWF0ZWQgb3IgbW9kaWZpZWQgdGhlIGZpbGUgY29udGVudHMubXNvZnR3YXJlQWdlbnShZG5hbWVmQ2xhdWRlcmFsbEFjdGlvbnNJbmNsdWRlZPUAAADIanVtYgAAAEBqdW1kY2JvcgARABCAAACqADibcRNjMnBhLmhhc2guZGF0YQAAAAAYYzJzaLwxwB7Mn6oMloyZkPmmN3YAAACAY2JvcqVjYWxnZnNoYTI1NmNwYWRMAAAAAAAAAAAAAAAAZGhhc2hYIMlsmKKfCd2GRf6w2st/DsGwcoDxKchNzKyNr+GGAp9NZG5hbWVuanVtYmYgbWFuaWZlc3RqZXhjbHVzaW9uc4GiZXN0YXJ0GQHLZmxlbmd0aBkeBAAAAj5qdW1iAAAAJ2p1bWRjMmNsABEAEIAAAKoAOJtxA2MycGEuY2xhaW0udjIAAAACD2Nib3KlY2FsZ2ZzaGEyNTZpc2lnbmF0dXJleE1zZWxmI2p1bWJmPS9jMnBhL3VybjpjMnBhOjY0OWM1NDkxLTVlMTctNDdhYS04NDRkLTMyN2IxNmZjMDI4MC9jMnBhLnNpZ25hdHVyZWppbnN0YW5jZUlEeCx4bXA6aWlkOjdmNTg3Yzk0LTZlOGMtNDRhYy1hNDY1LTk0MWJkYmE1MzdiY3JjcmVhdGVkX2Fzc2VydGlvbnODomN1cmx4LXNlbGYjanVtYmY9YzJwYS5hc3NlcnRpb25zL2MycGEuaW5ncmVkaWVudC52M2RoYXNoWCDfF9i4dqGRB3PEeUH5vTfCQ0csFgX3BJm2tK6puJdXr6JjdXJseCpzZWxmI2p1bWJmPWMycGEuYXNzZXJ0aW9ucy9jMnBhLmFjdGlvbnMudjJkaGFzaFggST3QTdPunKxYbgVKQgXtKvW2irJ6z2+xAPSK+j8DUPKiY3VybHgpc2VsZiNqdW1iZj1jMnBhLmFzc2VydGlvbnMvYzJwYS5oYXNoLmRhdGFkaGFzaFggysIOqsBJglPodYP9SGH7JeNNgL9DAhSB1JUh5oQEUSJ0Y2xhaW1fZ2VuZXJhdG9yX2luZm+jZG5hbWVvQW50aHJvcGljIEZpbGVzZ3ZlcnNpb25lMS4wLjBrc3BlY1ZlcnNpb25lMi40LjAAABA4anVtYgAAAChqdW1kYzJjcwARABCAAACqADibcQNjMnBhLnNpZ25hdHVyZQAAABAIY2JvctKEWQISogEmGCFZAgowggIGMIIBjaADAgECAhRA5aAK7sI50L64g/oGQgU9Z1UTADAKBggqhkjOPQQDAzBJMRcwFQYDVQQKEw5BbnRocm9waWMsIFBCQzEuMCwGA1UEAxMlQW50aHJvcGljIENvbnRlbnQgQ3JlZGVudGlhbHMgUm9vdCBDQTAeFw0yNjA4MDcxODQzNTZaFw0yODA4MDYxOTQzNTZaMEQxFzAVBgNVBAoTDkFudGhyb3BpYywgUEJDMSkwJwYDVQQDEyBBbnRocm9waWMgQ2xhdWRlIENvbnRlbnQgU2lnbmluZzBZMBMGByqGSM49AgEGCCqGSM49AwEHA0IABJh6CmvLUBgFFNU0vUKlOVtE6djd17L5SuwX0LemFisBM3dkd/3cyjxFA3Qo5S46fX0/ihY0VZ7mfb9KF703t5OjWDBWMA4GA1UdDwEB/wQEAwIHgDAVBgNVHSUEDjAMBgorBgEEAYPoXgIBMAwGA1UdEwEB/wQCMAAwHwYDVR0jBBgwFoAUzlHiBIFOZFsj+OPEz5o+nMHXXMIwCgYIKoZIzj0EAwMDZwAwZAIwMXMdFJ4BetLLVY7ORuE9noqbbAZOZn/aArXyTwFAZfKrPzxF2vPoJNf1+UCdg1XGAjBwX1zd9WGqYkqmL5SFqw1QySjr1zJfpJM9+1rdDwSPLMOPOjKuiXjoU/pUUeG9RwmhY3BhZFkNngAAAAAAAAAAAAAAAAAAAAAAAAAAAAAAAAAAAAAAAAAAAAAAAAAAAAAAAAAAAAAAAAAAAAAAAAAAAAAAAAAAAAAAAAAAAAAAAAAAAAAAAAAAAAAAAAAAAAAAAAAAAAAAAAAAAAAAAAAAAAAAAAAAAAAAAAAAAAAAAAAAAAAAAAAAAAAAAAAAAAAAAAAAAAAAAAAAAAAAAAAAAAAAAAAAAAAAAAAAAAAAAAAAAAAAAAAAAAAAAAAAAAAAAAAAAAAAAAAAAAAAAAAAAAAAAAAAAAAAAAAAAAAAAAAAAAAAAAAAAAAAAAAAAAAAAAAAAAAAAAAAAAAAAAAAAAAAAAAAAAAAAAAAAAAAAAAAAAAAAAAAAAAAAAAAAAAAAAAAAAAAAAAAAAAAAAAAAAAAAAAAAAAAAAAAAAAAAAAAAAAAAAAAAAAAAAAAAAAAAAAAAAAAAAAAAAAAAAAAAAAAAAAAAAAAAAAAAAAAAAAAAAAAAAAAAAAAAAAAAAAAAAAAAAAAAAAAAAAAAAAAAAAAAAAAAAAAAAAAAAAAAAAAAAAAAAAAAAAAAAAAAAAAAAAAAAAAAAAAAAAAAAAAAAAAAAAAAAAAAAAAAAAAAAAAAAAAAAAAAAAAAAAAAAAAAAAAAAAAAAAAAAAAAAAAAAAAAAAAAAAAAAAAAAAAAAAAAAAAAAAAAAAAAAAAAAAAAAAAAAAAAAAAAAAAAAAAAAAAAAAAAAAAAAAAAAAAAAAAAAAAAAAAAAAAAAAAAAAAAAAAAAAAAAAAAAAAAAAAAAAAAAAAAAAAAAAAAAAAAAAAAAAAAAAAAAAAAAAAAAAAAAAAAAAAAAAAAAAAAAAAAAAAAAAAAAAAAAAAAAAAAAAAAAAAAAAAAAAAAAAAAAAAAAAAAAAAAAAAAAAAAAAAAAAAAAAAAAAAAAAAAAAAAAAAAAAAAAAAAAAAAAAAAAAAAAAAAAAAAAAAAAAAAAAAAAAAAAAAAAAAAAAAAAAAAAAAAAAAAAAAAAAAAAAAAAAAAAAAAAAAAAAAAAAAAAAAAAAAAAAAAAAAAAAAAAAAAAAAAAAAAAAAAAAAAAAAAAAAAAAAAAAAAAAAAAAAAAAAAAAAAAAAAAAAAAAAAAAAAAAAAAAAAAAAAAAAAAAAAAAAAAAAAAAAAAAAAAAAAAAAAAAAAAAAAAAAAAAAAAAAAAAAAAAAAAAAAAAAAAAAAAAAAAAAAAAAAAAAAAAAAAAAAAAAAAAAAAAAAAAAAAAAAAAAAAAAAAAAAAAAAAAAAAAAAAAAAAAAAAAAAAAAAAAAAAAAAAAAAAAAAAAAAAAAAAAAAAAAAAAAAAAAAAAAAAAAAAAAAAAAAAAAAAAAAAAAAAAAAAAAAAAAAAAAAAAAAAAAAAAAAAAAAAAAAAAAAAAAAAAAAAAAAAAAAAAAAAAAAAAAAAAAAAAAAAAAAAAAAAAAAAAAAAAAAAAAAAAAAAAAAAAAAAAAAAAAAAAAAAAAAAAAAAAAAAAAAAAAAAAAAAAAAAAAAAAAAAAAAAAAAAAAAAAAAAAAAAAAAAAAAAAAAAAAAAAAAAAAAAAAAAAAAAAAAAAAAAAAAAAAAAAAAAAAAAAAAAAAAAAAAAAAAAAAAAAAAAAAAAAAAAAAAAAAAAAAAAAAAAAAAAAAAAAAAAAAAAAAAAAAAAAAAAAAAAAAAAAAAAAAAAAAAAAAAAAAAAAAAAAAAAAAAAAAAAAAAAAAAAAAAAAAAAAAAAAAAAAAAAAAAAAAAAAAAAAAAAAAAAAAAAAAAAAAAAAAAAAAAAAAAAAAAAAAAAAAAAAAAAAAAAAAAAAAAAAAAAAAAAAAAAAAAAAAAAAAAAAAAAAAAAAAAAAAAAAAAAAAAAAAAAAAAAAAAAAAAAAAAAAAAAAAAAAAAAAAAAAAAAAAAAAAAAAAAAAAAAAAAAAAAAAAAAAAAAAAAAAAAAAAAAAAAAAAAAAAAAAAAAAAAAAAAAAAAAAAAAAAAAAAAAAAAAAAAAAAAAAAAAAAAAAAAAAAAAAAAAAAAAAAAAAAAAAAAAAAAAAAAAAAAAAAAAAAAAAAAAAAAAAAAAAAAAAAAAAAAAAAAAAAAAAAAAAAAAAAAAAAAAAAAAAAAAAAAAAAAAAAAAAAAAAAAAAAAAAAAAAAAAAAAAAAAAAAAAAAAAAAAAAAAAAAAAAAAAAAAAAAAAAAAAAAAAAAAAAAAAAAAAAAAAAAAAAAAAAAAAAAAAAAAAAAAAAAAAAAAAAAAAAAAAAAAAAAAAAAAAAAAAAAAAAAAAAAAAAAAAAAAAAAAAAAAAAAAAAAAAAAAAAAAAAAAAAAAAAAAAAAAAAAAAAAAAAAAAAAAAAAAAAAAAAAAAAAAAAAAAAAAAAAAAAAAAAAAAAAAAAAAAAAAAAAAAAAAAAAAAAAAAAAAAAAAAAAAAAAAAAAAAAAAAAAAAAAAAAAAAAAAAAAAAAAAAAAAAAAAAAAAAAAAAAAAAAAAAAAAAAAAAAAAAAAAAAAAAAAAAAAAAAAAAAAAAAAAAAAAAAAAAAAAAAAAAAAAAAAAAAAAAAAAAAAAAAAAAAAAAAAAAAAAAAAAAAAAAAAAAAAAAAAAAAAAAAAAAAAAAAAAAAAAAAAAAAAAAAAAAAAAAAAAAAAAAAAAAAAAAAAAAAAAAAAAAAAAAAAAAAAAAAAAAAAAAAAAAAAAAAAAAAAAAAAAAAAAAAAAAAAAAAAAAAAAAAAAAAAAAAAAAAAAAAAAAAAAAAAAAAAAAAAAAAAAAAAAAAAAAAAAAAAAAAAAAAAAAAAAAAAAAAAAAAAAAAAAAAAAAAAAAAAAAAAAAAAAAAAAAAAAAAAAAAAAAAAAAAAAAAAAAAAAAAAAAAAAAAAAAAAAAAAAAAAAAAAAAAAAAAAAAAAAAAAAAAAAAAAAAAAAAAAAAAAAAAAAAAAAAAAAAAAAAAAAAAAAAAAAAAAAAAAAAAAAAAAAAAAAAAAAAAAAAAAAAAAAAAAAAAAAAAAAAAAAAAAAAAAAAAAAAAAAAAAAAAAAAAAAAAAAAAAAAAAAAAAAAAAAAAAAAAAAAAAAAAAAAAAAAAAAAAAAAAAAAAAAAAAAAAAAAAAAAAAAAAAAAAAAAAAAAAAAAAAAAAAAAAAAAAAAAAAAAAAAAAAAAAAAAAAAAAAAAAAAAAAAAAAAAAAAAAAAAAAAAAAAAAAAAAAAAAAAAAAAAAAAAAAAAAAAAAAAAAAAAAAAAAAAAAAAAAAAAAAAAAAAAAAAAAAAAAAAAAAAAAAAAAAAAAAAAAAAAAAAAAAAAAAAAAAAAAAAAAAAAAAAAAAAAAAAAAAAAAAAAAAAAAAAAAAAAAAAAAAAAAAAAAAAAAAAAAAAAAAAAAAAAAAAAAAAAAAAAAAAAAAAAAAAAAAAAAAAAAAAAAAAAAAAAAAAAAAAAAAAAAAAAAAAAAAAAAAAAAAAAAAAAAAAAAAAAAAAAAAAAAAAAAAAAAAAAAAAAAAAAAAAAAAAAAAAAAAAAAAAAAAAAAAAAAAAAAAAAAAAAAAAAAAAAAAAAAAAAAAAAAAAAAAAAAAAAAAAAAAAAAAAAAAAAAAAAAAAAAAAAAAAAAAAAAAAAAAAAAAAAAAAAAAAAAAAAAAAAAAAAAAAAAAAAAAAAAAAAAAAAAAAAAAAAAAAAAAAAAAAAAAAAAAAAAAAAAAAAAAAAAAAAAAAAAAAAAAAAAAAAAAAAAAAAAAAAAAAAAAAAAAAAAAAAAAAAAAAAAAAAAAAAAAAAAAAAAAAAAAAAAAAAAAAAAAAAAAAAAAAAAAAAAAAAAAAAAAAAAAAAAAAAAAAAAAAAAAAAAAAAAAAAAAAAAAAAAAAAAAAAAAAAAAAAAAAAAAAAAAAAAAAAAAAAAAAAAAAAAAAAAAAAAAAAAAAAAAAAAAAAAAAAAAAAAAAAAAAAAAAAAAAAAAAAAAAAAAAAAAAAAAAAAAAAAAAAAAAAAAAAAAAAAAAAAAAAAAAAAAAAAAAAAAAAAAAAAAAAAAAAAAAAAAAAAAAAAAAAAAAAAAAAAAAAAAAAAAAAAAAAAAAAAAAAAAAAAAAAAAAAAAAAAAAAAAAAAAAAAAAAAAAAAAAAAAAAAAAAAAAAAAAAAAAAAAAAAAAAAAAAAAAAAAAAAAAAAAAAAAAAAAAAAAAAAAAAAAAAAAAAAAAAAAAAAAAAAAAAAAAAAAAAAAAAAAAAAAAAAAAAAAAAAAAAAAAAAAAAAAAAAAAAAAAAAAAAAAAAAAAAAAAAAAAAAAAAAAAAAAAAAAAAAAAAAAAAAAAAAAAAAAAAAAAAAAAAAAAAAAAAAAAAAAAAAAAAAAAAAAAAAAAAAAAAAAAAAAAAAAAAAAAAAAAAAAAAAAAAAAAAAAAAAAAAAAAAAAAAAAAAAAAAAAAAAAAAAAAAAAAAAAAAAAAAAAAAAAAAAAAAAAAAAAAAAAAAAAAAAAAAAAAAAAAAAAAAAAAAAAAAAAAAAAAAAAAAAAAAAAAAAAAAAAAAAAAAAAAAAAAAAAAAAAAAAAAAAAAAAAAAAAAAAAAAAAAAAAAAAAAAAAAAAAAAAAAAAAAAAAAAAAAAAAAAAAAAAAAAAAAAAAAAAAAAAAAAAAAAAAAAAAAAAAAAAAAAAAAAAAAAAAAAAAAAAAAAAAAAAAAAAAAAAAAAAAAAAAAAAAAPZYQG20BZH/iK8sY24fZ72rfBj3tq0SR66tB3wybUlCvTHUiOdDM1d8k033lvItjUo3/yaDT2uo02jukI5DnZLFNfo=</c2pa:manifest></metadata>
<g id="graph0" class="graph" transform="scale(1 1) rotate(0) translate(4 1520)">
<title>TradeBookFlow</title>
<polygon fill="white" stroke="transparent" points="-4,4 -4,-1520 1033,-1520 1033,4 -4,4"/>
<text text-anchor="start" x="350" y="-1497" font-family="Helvetica,sans-Serif" font-weight="bold" font-size="20.00">TradeBook — Functional Flow</text>
<text text-anchor="start" x="317.5" y="-1483.4" font-family="Helvetica,sans-Serif" font-size="12.00">Trade capture (write path) and continuous revaluation (push path)</text>
<text text-anchor="start" x="511" y="-1465" font-family="Helvetica,sans-Serif" font-size="20.00"> </text>
<g id="clust1" class="cluster">
<title>cluster_auth</title>
<path fill="#f2f2f2" stroke="#a6a6a6" d="M35,-1013C35,-1013 209,-1013 209,-1013 215,-1013 221,-1019 221,-1025 221,-1025 221,-1405 221,-1405 221,-1411 215,-1417 209,-1417 209,-1417 35,-1417 35,-1417 29,-1417 23,-1411 23,-1405 23,-1405 23,-1025 23,-1025 23,-1019 29,-1013 35,-1013"/>
<text text-anchor="start" x="84" y="-1403.6" font-family="Helvetica,sans-Serif" font-weight="bold" font-size="13.00">A. Sign&#45;on</text>
</g>
<g id="clust2" class="cluster">
<title>cluster_capture</title>
<path fill="#f2f2f2" stroke="#a6a6a6" d="M20,-8C20,-8 468,-8 468,-8 474,-8 480,-14 480,-20 480,-20 480,-967 480,-967 480,-973 474,-979 468,-979 468,-979 20,-979 20,-979 14,-979 8,-973 8,-967 8,-967 8,-20 8,-20 8,-14 14,-8 20,-8"/>
<text text-anchor="start" x="137" y="-965.6" font-family="Helvetica,sans-Serif" font-weight="bold" font-size="13.00">B. Trade capture (write path)</text>
</g>
<g id="clust3" class="cluster">
<title>cluster_price</title>
<path fill="#f2f2f2" stroke="#a6a6a6" d="M500,-713C500,-713 771,-713 771,-713 777,-713 783,-719 783,-725 783,-725 783,-1406 783,-1406 783,-1412 777,-1418 771,-1418 771,-1418 500,-1418 500,-1418 494,-1418 488,-1412 488,-1406 488,-1406 488,-725 488,-725 488,-719 494,-713 500,-713"/>
<text text-anchor="start" x="496" y="-1404.6" font-family="Helvetica,sans-Serif" font-weight="bold" font-size="13.00">C. Continuous revaluation (push path)</text>
</g>
<!-- a1 -->
<g id="node1" class="node">
<title>a1</title>
<path fill="#fff2cc" stroke="#bf9000" d="M186.5,-1387C186.5,-1387 57.5,-1387 57.5,-1387 51.5,-1387 45.5,-1381 45.5,-1375 45.5,-1375 45.5,-1363 45.5,-1363 45.5,-1357 51.5,-1351 57.5,-1351 57.5,-1351 186.5,-1351 186.5,-1351 192.5,-1351 198.5,-1357 198.5,-1363 198.5,-1363 198.5,-1375 198.5,-1375 198.5,-1381 192.5,-1387 186.5,-1387"/>
<text text-anchor="middle" x="122" y="-1366.2" font-family="Helvetica,sans-Serif" font-size="11.00">Trader opens blotter UI</text>
</g>
<!-- a2 -->
<g id="node2" class="node">
<title>a2</title>
<path fill="#e2f0d9" stroke="#548235" d="M185.5,-1233C185.5,-1233 58.5,-1233 58.5,-1233 52.5,-1233 46.5,-1227 46.5,-1221 46.5,-1221 46.5,-1207 46.5,-1207 46.5,-1201 52.5,-1195 58.5,-1195 58.5,-1195 185.5,-1195 185.5,-1195 191.5,-1195 197.5,-1201 197.5,-1207 197.5,-1207 197.5,-1221 197.5,-1221 197.5,-1227 191.5,-1233 185.5,-1233"/>
<text text-anchor="middle" x="122" y="-1217.2" font-family="Helvetica,sans-Serif" font-size="11.00">Redirect to Keycloak</text>
<text text-anchor="middle" x="122" y="-1205.2" font-family="Helvetica,sans-Serif" font-size="11.00">authorization endpoint</text>
</g>
<!-- a1&#45;&gt;a2 -->
<g id="edge1" class="edge">
<title>a1&#45;&gt;a2</title>
<path fill="none" stroke="#44546a" d="M122,-1350.75C122,-1324.06 122,-1272.59 122,-1241.26"/>
<polygon fill="#44546a" stroke="#44546a" points="124.63,-1240.88 122,-1233.38 119.38,-1240.88 124.63,-1240.88"/>
</g>
<!-- a3 -->
<g id="node3" class="node">
<title>a3</title>
<path fill="#e2f0d9" stroke="#548235" d="M199.5,-1146C199.5,-1146 44.5,-1146 44.5,-1146 38.5,-1146 32.5,-1140 32.5,-1134 32.5,-1134 32.5,-1120 32.5,-1120 32.5,-1114 38.5,-1108 44.5,-1108 44.5,-1108 199.5,-1108 199.5,-1108 205.5,-1108 211.5,-1114 211.5,-1120 211.5,-1120 211.5,-1134 211.5,-1134 211.5,-1140 205.5,-1146 199.5,-1146"/>
<text text-anchor="middle" x="122" y="-1130.2" font-family="Helvetica,sans-Serif" font-size="11.00">Keycloak authenticates and</text>
<text text-anchor="middle" x="122" y="-1118.2" font-family="Helvetica,sans-Serif" font-size="11.00">issues JWT access token</text>
</g>
<!-- a2&#45;&gt;a3 -->
<g id="edge2" class="edge">
<title>a2&#45;&gt;a3</title>
<path fill="none" stroke="#44546a" d="M122,-1194.97C122,-1182.92 122,-1166.87 122,-1153.51"/>
<polygon fill="#44546a" stroke="#44546a" points="124.63,-1153.5 122,-1146 119.38,-1153.5 124.63,-1153.5"/>
</g>
<!-- a4 -->
<g id="node4" class="node">
<title>a4</title>
<path fill="#fff2cc" stroke="#bf9000" d="M200.5,-1059C200.5,-1059 43.5,-1059 43.5,-1059 37.5,-1059 31.5,-1053 31.5,-1047 31.5,-1047 31.5,-1033 31.5,-1033 31.5,-1027 37.5,-1021 43.5,-1021 43.5,-1021 200.5,-1021 200.5,-1021 206.5,-1021 212.5,-1027 212.5,-1033 212.5,-1033 212.5,-1047 212.5,-1047 212.5,-1053 206.5,-1059 200.5,-1059"/>
<text text-anchor="middle" x="122" y="-1043.2" font-family="Helvetica,sans-Serif" font-size="11.00">UI stores token; opens</text>
<text text-anchor="middle" x="122" y="-1031.2" font-family="Helvetica,sans-Serif" font-size="11.00">REST + SignalR connections</text>
</g>
<!-- a3&#45;&gt;a4 -->
<g id="edge3" class="edge">
<title>a3&#45;&gt;a4</title>
<path fill="none" stroke="#44546a" d="M122,-1107.97C122,-1095.92 122,-1079.87 122,-1066.51"/>
<polygon fill="#44546a" stroke="#44546a" points="124.63,-1066.5 122,-1059 119.38,-1066.5 124.63,-1066.5"/>
</g>
<!-- b1 -->
<g id="node5" class="node">
<title>b1</title>
<path fill="#fff2cc" stroke="#bf9000" d="M192.5,-949C192.5,-949 51.5,-949 51.5,-949 45.5,-949 39.5,-943 39.5,-937 39.5,-937 39.5,-923 39.5,-923 39.5,-917 45.5,-911 51.5,-911 51.5,-911 192.5,-911 192.5,-911 198.5,-911 204.5,-917 204.5,-923 204.5,-923 204.5,-937 204.5,-937 204.5,-943 198.5,-949 192.5,-949"/>
<text text-anchor="middle" x="122" y="-933.2" font-family="Helvetica,sans-Serif" font-size="11.00">Trader submits execution</text>
<text text-anchor="middle" x="122" y="-921.2" font-family="Helvetica,sans-Serif" font-size="11.00">POST /api/trades</text>
</g>
<!-- a4&#45;&gt;b1 -->
<g id="edge24" class="edge">
<title>a4&#45;&gt;b1</title>
<path fill="none" stroke="#44546a" stroke-dasharray="5,2" d="M122,-1013C122,-1005 122,-995.86 122,-986.65"/>
<polygon fill="#44546a" stroke="#44546a" points="124.63,-986.5 122,-979 119.38,-986.5 124.63,-986.5"/>
<text text-anchor="middle" x="172" y="-989.8" font-family="Helvetica,sans-Serif" font-size="9.00">authenticated session</text>
</g>
<!-- b2 -->
<g id="node6" class="node">
<title>b2</title>
<path fill="#deebf7" stroke="#2e75b6" d="M201,-862C201,-862 43,-862 43,-862 37,-862 31,-856 31,-850 31,-850 31,-836 31,-836 31,-830 37,-824 43,-824 43,-824 201,-824 201,-824 207,-824 213,-830 213,-836 213,-836 213,-850 213,-850 213,-856 207,-862 201,-862"/>
<text text-anchor="middle" x="122" y="-846.2" font-family="Helvetica,sans-Serif" font-size="11.00">API validates JWT signature,</text>
<text text-anchor="middle" x="122" y="-834.2" font-family="Helvetica,sans-Serif" font-size="11.00">issuer and audience</text>
</g>
<!-- b1&#45;&gt;b2 -->
<g id="edge4" class="edge">
<title>b1&#45;&gt;b2</title>
<path fill="none" stroke="#44546a" d="M122,-910.97C122,-898.92 122,-882.87 122,-869.51"/>
<polygon fill="#44546a" stroke="#44546a" points="124.63,-869.5 122,-862 119.38,-869.5 124.63,-869.5"/>
</g>
<!-- b3 -->
<g id="node7" class="node">
<title>b3</title>
<polygon fill="#fbe5d6" stroke="#c55a11" points="122,-775 33,-739 122,-703 211,-739 122,-775"/>
<text text-anchor="middle" x="122" y="-742" font-family="Helvetica,sans-Serif" font-size="10.00">Caller owns</text>
<text text-anchor="middle" x="122" y="-731" font-family="Helvetica,sans-Serif" font-size="10.00">the account?</text>
</g>
<!-- b2&#45;&gt;b3 -->
<g id="edge5" class="edge">
<title>b2&#45;&gt;b3</title>
<path fill="none" stroke="#44546a" d="M122,-823.76C122,-812.45 122,-797.41 122,-783.19"/>
<polygon fill="#44546a" stroke="#44546a" points="124.63,-782.91 122,-775.41 119.38,-782.91 124.63,-782.91"/>
</g>
<!-- b4 -->
<g id="node8" class="node">
<title>b4</title>
<path fill="#ffd9d9" stroke="#c00000" d="M165.5,-645C165.5,-645 44.5,-645 44.5,-645 38.5,-645 32.5,-639 32.5,-633 32.5,-633 32.5,-621 32.5,-621 32.5,-615 38.5,-609 44.5,-609 44.5,-609 165.5,-609 165.5,-609 171.5,-609 177.5,-615 177.5,-621 177.5,-621 177.5,-633 177.5,-633 177.5,-639 171.5,-645 165.5,-645"/>
<text text-anchor="middle" x="105" y="-624.2" font-family="Helvetica,sans-Serif" font-size="11.00">Return 403 Forbidden</text>
</g>
<!-- b3&#45;&gt;b4 -->
<g id="edge6" class="edge">
<title>b3&#45;&gt;b4</title>
<path fill="none" stroke="#44546a" d="M116.9,-705C114.3,-688.18 111.2,-668.09 108.81,-652.64"/>
<polygon fill="#44546a" stroke="#44546a" points="111.37,-652.04 107.63,-645.03 106.18,-652.84 111.37,-652.04"/>
<text text-anchor="middle" x="118" y="-671.8" font-family="Helvetica,sans-Serif" font-size="9.00">no</text>
</g>
<!-- b5 -->
<g id="node9" class="node">
<title>b5</title>
<polygon fill="#fbe5d6" stroke="#c55a11" points="305,-645 209.85,-627 305,-609 400.15,-627 305,-645"/>
<text text-anchor="middle" x="305" y="-624.5" font-family="Helvetica,sans-Serif" font-size="10.00">Payload valid?</text>
</g>
<!-- b3&#45;&gt;b5 -->
<g id="edge7" class="edge">
<title>b3&#45;&gt;b5</title>
<path fill="none" stroke="#44546a" d="M156.85,-717.05C191.71,-696.1 244.64,-664.28 276.9,-644.89"/>
<polygon fill="#44546a" stroke="#44546a" points="278.38,-647.07 283.45,-640.95 275.67,-642.57 278.38,-647.07"/>
<text text-anchor="middle" x="243" y="-671.8" font-family="Helvetica,sans-Serif" font-size="9.00">yes</text>
</g>
<!-- b6 -->
<g id="node10" class="node">
<title>b6</title>
<path fill="#ffd9d9" stroke="#c00000" d="M165.5,-550C165.5,-550 28.5,-550 28.5,-550 22.5,-550 16.5,-544 16.5,-538 16.5,-538 16.5,-526 16.5,-526 16.5,-520 22.5,-514 28.5,-514 28.5,-514 165.5,-514 165.5,-514 171.5,-514 177.5,-520 177.5,-526 177.5,-526 177.5,-538 177.5,-538 177.5,-544 171.5,-550 165.5,-550"/>
<text text-anchor="middle" x="97" y="-529.2" font-family="Helvetica,sans-Serif" font-size="11.00">Return 400 Bad Request</text>
</g>
<!-- b5&#45;&gt;b6 -->
<g id="edge8" class="edge">
<title>b5&#45;&gt;b6</title>
<path fill="none" stroke="#44546a" d="M278.23,-614.03C243.9,-598.68 183.85,-571.83 142.33,-553.27"/>
<polygon fill="#44546a" stroke="#44546a" points="143.24,-550.8 135.32,-550.13 141.09,-555.59 143.24,-550.8"/>
<text text-anchor="middle" x="222" y="-577.8" font-family="Helvetica,sans-Serif" font-size="9.00">invalid</text>
</g>
<!-- b7 -->
<g id="node11" class="node">
<title>b7</title>
<path fill="#deebf7" stroke="#2e75b6" d="M460,-551C460,-551 222,-551 222,-551 216,-551 210,-545 210,-539 210,-539 210,-525 210,-525 210,-519 216,-513 222,-513 222,-513 460,-513 460,-513 466,-513 472,-519 472,-525 472,-525 472,-539 472,-539 472,-545 466,-551 460,-551"/>
<text text-anchor="middle" x="341" y="-535.2" font-family="Helvetica,sans-Serif" font-size="11.00">Begin transaction; load position</text>
<text text-anchor="middle" x="341" y="-523.2" font-family="Helvetica,sans-Serif" font-size="11.00">for (account, instrument) with row_version</text>
</g>
<!-- b5&#45;&gt;b7 -->
<g id="edge9" class="edge">
<title>b5&#45;&gt;b7</title>
<path fill="none" stroke="#44546a" d="M311.27,-609.8C316.76,-595.63 324.82,-574.81 331.16,-558.42"/>
<polygon fill="#44546a" stroke="#44546a" points="333.68,-559.18 333.94,-551.24 328.78,-557.29 333.68,-559.18"/>
<text text-anchor="middle" x="335" y="-577.8" font-family="Helvetica,sans-Serif" font-size="9.00">valid</text>
</g>
<!-- b8 -->
<g id="node12" class="node">
<title>b8</title>
<path fill="#deebf7" stroke="#2e75b6" d="M403,-464C403,-464 201,-464 201,-464 195,-464 189,-458 189,-452 189,-452 189,-438 189,-438 189,-432 195,-426 201,-426 201,-426 403,-426 403,-426 409,-426 415,-432 415,-438 415,-438 415,-452 415,-452 415,-458 409,-464 403,-464"/>
<text text-anchor="middle" x="302" y="-448.2" font-family="Helvetica,sans-Serif" font-size="11.00">Apply weighted&#45;average&#45;cost rules</text>
<text text-anchor="middle" x="302" y="-436.2" font-family="Helvetica,sans-Serif" font-size="11.00">same side / reducing / crossing zero</text>
</g>
<!-- b7&#45;&gt;b8 -->
<g id="edge10" class="edge">
<title>b7&#45;&gt;b8</title>
<path fill="none" stroke="#44546a" d="M332.73,-512.97C327.14,-500.8 319.7,-484.57 313.53,-471.13"/>
<polygon fill="#44546a" stroke="#44546a" points="315.77,-469.72 310.26,-464 311,-471.91 315.77,-469.72"/>
</g>
<!-- b9 -->
<g id="node13" class="node">
<title>b9</title>
<path fill="#d9e2f3" stroke="#1f4e79" d="M374,-377C374,-377 202,-377 202,-377 196,-377 190,-371 190,-365 190,-365 190,-351 190,-351 190,-345 196,-339 202,-339 202,-339 374,-339 374,-339 380,-339 386,-345 386,-351 386,-351 386,-365 386,-365 386,-371 380,-377 374,-377"/>
<text text-anchor="middle" x="288" y="-361.2" font-family="Helvetica,sans-Serif" font-size="11.00">Insert trade (append&#45;only) and</text>
<text text-anchor="middle" x="288" y="-349.2" font-family="Helvetica,sans-Serif" font-size="11.00">update position in one commit</text>
</g>
<!-- b8&#45;&gt;b9 -->
<g id="edge11" class="edge">
<title>b8&#45;&gt;b9</title>
<path fill="none" stroke="#44546a" d="M299.03,-425.97C297.04,-413.92 294.4,-397.87 292.2,-384.51"/>
<polygon fill="#44546a" stroke="#44546a" points="294.77,-383.97 290.96,-377 289.59,-384.83 294.77,-383.97"/>
</g>
<!-- b10 -->
<g id="node14" class="node">
<title>b10</title>
<polygon fill="#fbe5d6" stroke="#c55a11" points="288,-290 202,-254 288,-218 374,-254 288,-290"/>
<text text-anchor="middle" x="288" y="-257" font-family="Helvetica,sans-Serif" font-size="10.00">row_version</text>
<text text-anchor="middle" x="288" y="-246" font-family="Helvetica,sans-Serif" font-size="10.00">conflict?</text>
</g>
<!-- b9&#45;&gt;b10 -->
<g id="edge12" class="edge">
<title>b9&#45;&gt;b10</title>
<path fill="none" stroke="#44546a" d="M288,-338.76C288,-327.45 288,-312.41 288,-298.19"/>
<polygon fill="#44546a" stroke="#44546a" points="290.63,-297.91 288,-290.41 285.38,-297.91 290.63,-297.91"/>
</g>
<!-- b11 -->
<g id="node15" class="node">
<title>b11</title>
<path fill="#deebf7" stroke="#2e75b6" d="M210,-160C210,-160 68,-160 68,-160 62,-160 56,-154 56,-148 56,-148 56,-134 56,-134 56,-128 62,-122 68,-122 68,-122 210,-122 210,-122 216,-122 222,-128 222,-134 222,-134 222,-148 222,-148 222,-154 216,-160 210,-160"/>
<text text-anchor="middle" x="139" y="-144.2" font-family="Helvetica,sans-Serif" font-size="11.00">Reload position and retry</text>
<text text-anchor="middle" x="139" y="-132.2" font-family="Helvetica,sans-Serif" font-size="11.00">(max 3 attempts)</text>
</g>
<!-- b10&#45;&gt;b11 -->
<g id="edge13" class="edge">
<title>b10&#45;&gt;b11</title>
<path fill="none" stroke="#44546a" d="M257.85,-230.54C232.13,-211.38 195.34,-183.97 169.52,-164.74"/>
<polygon fill="#44546a" stroke="#44546a" points="170.79,-162.41 163.21,-160.03 167.66,-166.62 170.79,-162.41"/>
<text text-anchor="middle" x="212" y="-186.8" font-family="Helvetica,sans-Serif" font-size="9.00">yes</text>
</g>
<!-- b13 -->
<g id="node17" class="node">
<title>b13</title>
<path fill="#deebf7" stroke="#2e75b6" d="M419.5,-160C419.5,-160 266.5,-160 266.5,-160 260.5,-160 254.5,-154 254.5,-148 254.5,-148 254.5,-134 254.5,-134 254.5,-128 260.5,-122 266.5,-122 266.5,-122 419.5,-122 419.5,-122 425.5,-122 431.5,-128 431.5,-134 431.5,-134 431.5,-148 431.5,-148 431.5,-154 425.5,-160 419.5,-160"/>
<text text-anchor="middle" x="343" y="-144.2" font-family="Helvetica,sans-Serif" font-size="11.00">Publish updated position to</text>
<text text-anchor="middle" x="343" y="-132.2" font-family="Helvetica,sans-Serif" font-size="11.00">SignalR group account&#45;{id}</text>
</g>
<!-- b10&#45;&gt;b13 -->
<g id="edge16" class="edge">
<title>b10&#45;&gt;b13</title>
<path fill="none" stroke="#44546a" d="M302.45,-223.84C311.2,-206.19 322.23,-183.91 330.58,-167.06"/>
<polygon fill="#44546a" stroke="#44546a" points="333,-168.09 333.98,-160.2 328.3,-165.76 333,-168.09"/>
<text text-anchor="middle" x="328" y="-186.8" font-family="Helvetica,sans-Serif" font-size="9.00">no</text>
</g>
<!-- b11&#45;&gt;b7 -->
<g id="edge14" class="edge">
<title>b11&#45;&gt;b7</title>
<path fill="none" stroke="#44546a" stroke-dasharray="5,2" d="M222.15,-159.2C278.21,-170.8 342,-184 342,-184 342,-184 390,-218 390,-218 390,-218 431,-426 431,-426 431,-426 431,-464 431,-464 431,-464 397.78,-488.73 371.71,-508.14"/>
<polygon fill="#44546a" stroke="#44546a" points="370.04,-506.11 365.59,-512.69 373.18,-510.32 370.04,-506.11"/>
<text text-anchor="middle" x="432" y="-355.8" font-family="Helvetica,sans-Serif" font-size="9.00">retry</text>
</g>
<!-- b12 -->
<g id="node16" class="node">
<title>b12</title>
<path fill="#ffd9d9" stroke="#c00000" d="M193,-53C193,-53 85,-53 85,-53 79,-53 73,-47 73,-41 73,-41 73,-29 73,-29 73,-23 79,-17 85,-17 85,-17 193,-17 193,-17 199,-17 205,-23 205,-29 205,-29 205,-41 205,-41 205,-47 199,-53 193,-53"/>
<text text-anchor="middle" x="139" y="-32.2" font-family="Helvetica,sans-Serif" font-size="11.00">Return 409 Conflict</text>
</g>
<!-- b11&#45;&gt;b12 -->
<g id="edge15" class="edge">
<title>b11&#45;&gt;b12</title>
<path fill="none" stroke="#44546a" d="M139,-121.88C139,-104.98 139,-79.61 139,-60.82"/>
<polygon fill="#44546a" stroke="#44546a" points="141.63,-60.72 139,-53.22 136.38,-60.72 141.63,-60.72"/>
<text text-anchor="middle" x="163" y="-90.8" font-family="Helvetica,sans-Serif" font-size="9.00">attempts</text>
<text text-anchor="middle" x="163" y="-80.8" font-family="Helvetica,sans-Serif" font-size="9.00">exhausted</text>
</g>
<!-- b14 -->
<g id="node18" class="node">
<title>b14</title>
<path fill="#fff2cc" stroke="#bf9000" d="M408,-54C408,-54 278,-54 278,-54 272,-54 266,-48 266,-42 266,-42 266,-28 266,-28 266,-22 272,-16 278,-16 278,-16 408,-16 408,-16 414,-16 420,-22 420,-28 420,-28 420,-42 420,-42 420,-48 414,-54 408,-54"/>
<text text-anchor="middle" x="343" y="-38.2" font-family="Helvetica,sans-Serif" font-size="11.00">Return 201 Created</text>
<text text-anchor="middle" x="343" y="-26.2" font-family="Helvetica,sans-Serif" font-size="11.00">with trade and position</text>
</g>
<!-- b13&#45;&gt;b14 -->
<g id="edge17" class="edge">
<title>b13&#45;&gt;b14</title>
<path fill="none" stroke="#44546a" d="M343,-121.88C343,-105.28 343,-80.52 343,-61.85"/>
<polygon fill="#44546a" stroke="#44546a" points="345.63,-61.76 343,-54.26 340.38,-61.76 345.63,-61.76"/>
</g>
<!-- c1 -->
<g id="node19" class="node">
<title>c1</title>
<path fill="#e2efda" stroke="#548235" d="M713.5,-1388C713.5,-1388 556.5,-1388 556.5,-1388 550.5,-1388 544.5,-1382 544.5,-1376 544.5,-1376 544.5,-1362 544.5,-1362 544.5,-1356 550.5,-1350 556.5,-1350 556.5,-1350 713.5,-1350 713.5,-1350 719.5,-1350 725.5,-1356 725.5,-1362 725.5,-1362 725.5,-1376 725.5,-1376 725.5,-1382 719.5,-1388 713.5,-1388"/>
<text text-anchor="middle" x="635" y="-1372.2" font-family="Helvetica,sans-Serif" font-size="11.00">PriceFeedService timer fires</text>
<text text-anchor="middle" x="635" y="-1360.2" font-family="Helvetica,sans-Serif" font-size="11.00">(1 second interval)</text>
</g>
<!-- c2 -->
<g id="node20" class="node">
<title>c2</title>
<path fill="#e2efda" stroke="#548235" d="M721,-1233C721,-1233 549,-1233 549,-1233 543,-1233 537,-1227 537,-1221 537,-1221 537,-1207 537,-1207 537,-1201 543,-1195 549,-1195 549,-1195 721,-1195 721,-1195 727,-1195 733,-1201 733,-1207 733,-1207 733,-1221 733,-1221 733,-1227 727,-1233 721,-1233"/>
<text text-anchor="middle" x="635" y="-1217.2" font-family="Helvetica,sans-Serif" font-size="11.00">Generate next price per active</text>
<text text-anchor="middle" x="635" y="-1205.2" font-family="Helvetica,sans-Serif" font-size="11.00">instrument; persist snapshot</text>
</g>
<!-- c1&#45;&gt;c2 -->
<g id="edge19" class="edge">
<title>c1&#45;&gt;c2</title>
<path fill="none" stroke="#44546a" d="M635,-1349.85C635,-1322.82 635,-1271.86 635,-1240.91"/>
<polygon fill="#44546a" stroke="#44546a" points="637.63,-1240.63 635,-1233.13 632.38,-1240.63 637.63,-1240.63"/>
</g>
<!-- c3 -->
<g id="node21" class="node">
<title>c3</title>
<path fill="#deebf7" stroke="#2e75b6" d="M691.5,-1146C691.5,-1146 578.5,-1146 578.5,-1146 572.5,-1146 566.5,-1140 566.5,-1134 566.5,-1134 566.5,-1120 566.5,-1120 566.5,-1114 572.5,-1108 578.5,-1108 578.5,-1108 691.5,-1108 691.5,-1108 697.5,-1108 703.5,-1114 703.5,-1120 703.5,-1120 703.5,-1134 703.5,-1134 703.5,-1140 697.5,-1146 691.5,-1146"/>
<text text-anchor="middle" x="635" y="-1130.2" font-family="Helvetica,sans-Serif" font-size="11.00">Load open positions</text>
<text text-anchor="middle" x="635" y="-1118.2" font-family="Helvetica,sans-Serif" font-size="11.00">(net_quantity &lt;&gt; 0)</text>
</g>
<!-- c2&#45;&gt;c3 -->
<g id="edge20" class="edge">
<title>c2&#45;&gt;c3</title>
<path fill="none" stroke="#44546a" d="M635,-1194.97C635,-1182.92 635,-1166.87 635,-1153.51"/>
<polygon fill="#44546a" stroke="#44546a" points="637.63,-1153.5 635,-1146 632.38,-1153.5 637.63,-1153.5"/>
</g>
<!-- c4 -->
<g id="node22" class="node">
<title>c4</title>
<path fill="#deebf7" stroke="#2e75b6" d="M751,-1059C751,-1059 519,-1059 519,-1059 513,-1059 507,-1053 507,-1047 507,-1047 507,-1033 507,-1033 507,-1027 513,-1021 519,-1021 519,-1021 751,-1021 751,-1021 757,-1021 763,-1027 763,-1033 763,-1033 763,-1047 763,-1047 763,-1053 757,-1059 751,-1059"/>
<text text-anchor="middle" x="635" y="-1043.2" font-family="Helvetica,sans-Serif" font-size="11.00">Compute unrealised P&amp;L</text>
<text text-anchor="middle" x="635" y="-1031.2" font-family="Helvetica,sans-Serif" font-size="11.00">(last_price &#45; average_cost) x net_quantity</text>
</g>
<!-- c3&#45;&gt;c4 -->
<g id="edge21" class="edge">
<title>c3&#45;&gt;c4</title>
<path fill="none" stroke="#44546a" d="M635,-1107.97C635,-1095.92 635,-1079.87 635,-1066.51"/>
<polygon fill="#44546a" stroke="#44546a" points="637.63,-1066.5 635,-1059 632.38,-1066.5 637.63,-1066.5"/>
</g>
<!-- c5 -->
<g id="node23" class="node">
<title>c5</title>
<path fill="#e2efda" stroke="#548235" d="M716,-949C716,-949 554,-949 554,-949 548,-949 542,-943 542,-937 542,-937 542,-923 542,-923 542,-917 548,-911 554,-911 554,-911 716,-911 716,-911 722,-911 728,-917 728,-923 728,-923 728,-937 728,-937 728,-943 722,-949 716,-949"/>
<text text-anchor="middle" x="635" y="-933.2" font-family="Helvetica,sans-Serif" font-size="11.00">Push valuation to subscribed</text>
<text text-anchor="middle" x="635" y="-921.2" font-family="Helvetica,sans-Serif" font-size="11.00">SignalR groups</text>
</g>
<!-- c4&#45;&gt;c5 -->
<g id="edge22" class="edge">
<title>c4&#45;&gt;c5</title>
<path fill="none" stroke="#44546a" d="M635,-1020.68C635,-1003.12 635,-976.45 635,-956.75"/>
<polygon fill="#44546a" stroke="#44546a" points="637.63,-956.55 635,-949.05 632.38,-956.55 637.63,-956.55"/>
</g>
<!-- c6 -->
<g id="node24" class="node">
<title>c6</title>
<path fill="#fff2cc" stroke="#bf9000" d="M704,-862C704,-862 566,-862 566,-862 560,-862 554,-856 554,-850 554,-850 554,-836 554,-836 554,-830 560,-824 566,-824 566,-824 704,-824 704,-824 710,-824 716,-830 716,-836 716,-836 716,-850 716,-850 716,-856 710,-862 704,-862"/>
<text text-anchor="middle" x="635" y="-846.2" font-family="Helvetica,sans-Serif" font-size="11.00">Blotter updates in place;</text>
<text text-anchor="middle" x="635" y="-834.2" font-family="Helvetica,sans-Serif" font-size="11.00">no page refresh</text>
</g>
<!-- c5&#45;&gt;c6 -->
<g id="edge23" class="edge">
<title>c5&#45;&gt;c6</title>
<path fill="none" stroke="#44546a" d="M635,-910.97C635,-898.92 635,-882.87 635,-869.51"/>
<polygon fill="#44546a" stroke="#44546a" points="637.63,-869.5 635,-862 632.38,-869.5 637.63,-869.5"/>
</g>
<!-- c7 -->
<g id="node25" class="node">
<title>c7</title>
<polygon fill="#ffffff" stroke="#a6a6a6" points="722,-757 542,-757 542,-721 728,-721 728,-751 722,-757"/>
<polyline fill="none" stroke="#a6a6a6" points="722,-757 722,-751 "/>
<polyline fill="none" stroke="#a6a6a6" points="728,-751 722,-751 "/>
<text text-anchor="middle" x="635" y="-741.8" font-family="Helvetica,sans-Serif" font-size="9.00">Trade&#45;driven position updates</text>
<text text-anchor="middle" x="635" y="-731.8" font-family="Helvetica,sans-Serif" font-size="9.00">arrive on the same hub connection</text>
</g>
<!-- c6&#45;&gt;c7 -->
<g id="edge18" class="edge">
<title>c6&#45;&gt;c7</title>
<path fill="none" stroke="#44546a" stroke-dasharray="1,5" d="M635,-823.76C635,-804.85 635,-775.52 635,-757.06"/>
</g>
<!-- legend -->
<g id="node26" class="node">
<title>legend</title>
<text text-anchor="start" x="812" y="-1433.2" font-family="Helvetica,sans-Serif" font-weight="bold" font-size="11.00">Actor</text>
<polygon fill="#fff2cc" stroke="transparent" points="809,-1404 809,-1422 827,-1422 827,-1404 809,-1404"/>
<text text-anchor="start" x="834" y="-1410.2" font-family="Helvetica,sans-Serif" font-size="11.00">Trader / browser</text>
<polygon fill="#deebf7" stroke="transparent" points="809,-1382 809,-1400 827,-1400 827,-1382 809,-1382"/>
<text text-anchor="start" x="834" y="-1388.2" font-family="Helvetica,sans-Serif" font-size="11.00">TradeBook API</text>
<polygon fill="#e2f0d9" stroke="transparent" points="809,-1360 809,-1378 827,-1378 827,-1360 809,-1360"/>
<text text-anchor="start" x="834" y="-1366.2" font-family="Helvetica,sans-Serif" font-size="11.00">Keycloak / background services</text>
<polygon fill="#d9e2f3" stroke="transparent" points="809,-1338 809,-1356 827,-1356 827,-1338 809,-1338"/>
<text text-anchor="start" x="834" y="-1344.2" font-family="Helvetica,sans-Serif" font-size="11.00">SQL Server</text>
<polygon fill="#fbe5d6" stroke="transparent" points="809,-1316 809,-1334 827,-1334 827,-1316 809,-1316"/>
<text text-anchor="start" x="834" y="-1322.2" font-family="Helvetica,sans-Serif" font-size="11.00">Decision</text>
<polygon fill="#ffd9d9" stroke="transparent" points="809,-1294 809,-1312 827,-1312 827,-1294 809,-1294"/>
<text text-anchor="start" x="834" y="-1300.2" font-family="Helvetica,sans-Serif" font-size="11.00">Error response</text>
<polygon fill="none" stroke="#a6a6a6" points="804,-1289 804,-1449 1016,-1449 1016,-1289 804,-1289"/>
</g>
</g>
</svg>
